G75*
G70*
%OFA0B0*%
%FSLAX24Y24*%
%IPPOS*%
%LPD*%
%AMOC8*
5,1,8,0,0,1.08239X$1,22.5*
%
%ADD10C,0.0100*%
%ADD11C,0.0030*%
%ADD12C,0.0080*%
%ADD13C,0.0055*%
%ADD14C,0.0060*%
%ADD15C,0.0070*%
%ADD16C,0.0050*%
%ADD17C,0.0140*%
%ADD18C,0.0040*%
%ADD19C,0.0090*%
%ADD20C,0.0000*%
D10*
X002393Y001821D02*
X002330Y038999D01*
X002331Y038998D02*
X002328Y039067D01*
X002329Y039135D01*
X002334Y039203D01*
X002343Y039271D01*
X002355Y039339D01*
X002371Y039405D01*
X002390Y039471D01*
X002413Y039535D01*
X002440Y039599D01*
X002470Y039660D01*
X002503Y039720D01*
X002539Y039778D01*
X002578Y039834D01*
X002621Y039888D01*
X002666Y039939D01*
X002714Y039988D01*
X002764Y040034D01*
X002817Y040078D01*
X002873Y040118D01*
X002930Y040156D01*
X002989Y040190D01*
X003050Y040221D01*
X003113Y040249D01*
X003177Y040273D01*
X003242Y040294D01*
X003308Y040311D01*
X003375Y040324D01*
X003443Y040334D01*
X003511Y040340D01*
X003511Y040341D02*
X040913Y040341D01*
X040983Y040333D01*
X041052Y040321D01*
X041121Y040306D01*
X041188Y040287D01*
X041255Y040264D01*
X041320Y040238D01*
X041384Y040208D01*
X041446Y040175D01*
X041506Y040138D01*
X041564Y040098D01*
X041619Y040056D01*
X041673Y040010D01*
X041724Y039961D01*
X041772Y039910D01*
X041817Y039856D01*
X041859Y039800D01*
X041898Y039741D01*
X041934Y039681D01*
X041967Y039619D01*
X041996Y039555D01*
X042022Y039489D01*
X042044Y039423D01*
X042062Y039355D01*
X042077Y039286D01*
X042088Y039217D01*
X042095Y039147D01*
X042099Y039077D01*
X042098Y039006D01*
X042094Y038936D01*
X042094Y001759D01*
X042095Y001759D02*
X042081Y001685D01*
X042063Y001613D01*
X042042Y001541D01*
X042016Y001471D01*
X041988Y001402D01*
X041955Y001334D01*
X041919Y001269D01*
X041880Y001205D01*
X041837Y001144D01*
X041792Y001085D01*
X041743Y001028D01*
X041691Y000974D01*
X041637Y000923D01*
X041580Y000874D01*
X041520Y000829D01*
X041459Y000787D01*
X041395Y000748D01*
X041329Y000712D01*
X041261Y000680D01*
X041192Y000652D01*
X041122Y000627D01*
X041050Y000606D01*
X040977Y000589D01*
X040904Y000576D01*
X040829Y000566D01*
X040755Y000561D01*
X040680Y000559D01*
X040605Y000561D01*
X040531Y000567D01*
X040457Y000577D01*
X040456Y000578D02*
X003699Y000578D01*
X003698Y000577D02*
X003629Y000578D01*
X003560Y000581D01*
X003492Y000589D01*
X003424Y000600D01*
X003356Y000615D01*
X003290Y000634D01*
X003224Y000656D01*
X003160Y000682D01*
X003098Y000711D01*
X003037Y000744D01*
X002978Y000779D01*
X002921Y000818D01*
X002866Y000860D01*
X002813Y000905D01*
X002763Y000953D01*
X002716Y001003D01*
X002671Y001056D01*
X002630Y001111D01*
X002591Y001168D01*
X002555Y001227D01*
X002523Y001288D01*
X002494Y001351D01*
X002469Y001415D01*
X002447Y001481D01*
X002429Y001547D01*
X002414Y001615D01*
X002403Y001683D01*
X002396Y001752D01*
X002392Y001821D01*
X006830Y001578D02*
X007330Y001078D01*
X007330Y002078D01*
X006830Y001578D01*
X006845Y001563D02*
X007330Y001563D01*
X007330Y001661D02*
X006914Y001661D01*
X007012Y001760D02*
X007330Y001760D01*
X007330Y001858D02*
X007111Y001858D01*
X007209Y001957D02*
X007330Y001957D01*
X007330Y002055D02*
X007308Y002055D01*
X007330Y001464D02*
X006943Y001464D01*
X007042Y001366D02*
X007330Y001366D01*
X007330Y001267D02*
X007140Y001267D01*
X007239Y001169D02*
X007330Y001169D01*
X009830Y001578D02*
X010330Y001078D01*
X010330Y002078D01*
X009830Y001578D01*
X009845Y001563D02*
X010330Y001563D01*
X010330Y001661D02*
X009914Y001661D01*
X010012Y001760D02*
X010330Y001760D01*
X010330Y001858D02*
X010111Y001858D01*
X010209Y001957D02*
X010330Y001957D01*
X010330Y002055D02*
X010308Y002055D01*
X010330Y001464D02*
X009943Y001464D01*
X010042Y001366D02*
X010330Y001366D01*
X010330Y001267D02*
X010140Y001267D01*
X010239Y001169D02*
X010330Y001169D01*
X012830Y001578D02*
X013330Y001078D01*
X013330Y002078D01*
X012830Y001578D01*
X012845Y001563D02*
X013330Y001563D01*
X013330Y001661D02*
X012914Y001661D01*
X013012Y001760D02*
X013330Y001760D01*
X013330Y001858D02*
X013111Y001858D01*
X013209Y001957D02*
X013330Y001957D01*
X013330Y002055D02*
X013308Y002055D01*
X013330Y001464D02*
X012943Y001464D01*
X013042Y001366D02*
X013330Y001366D01*
X013330Y001267D02*
X013140Y001267D01*
X013239Y001169D02*
X013330Y001169D01*
X035361Y006046D02*
X040125Y006046D01*
X040676Y006675D02*
X040676Y010061D01*
X040681Y010099D01*
X040690Y010137D01*
X040703Y010174D01*
X040719Y010209D01*
X040739Y010243D01*
X040762Y010274D01*
X040788Y010303D01*
X040817Y010329D01*
X040849Y010352D01*
X040882Y010371D01*
X040918Y010388D01*
X040954Y010400D01*
X040992Y010409D01*
X041031Y010414D01*
X041070Y010415D01*
X041070Y010416D02*
X041098Y010418D01*
X041126Y010423D01*
X041154Y010431D01*
X041180Y010443D01*
X041204Y010458D01*
X041226Y010475D01*
X041247Y010496D01*
X041264Y010518D01*
X041279Y010542D01*
X041291Y010568D01*
X041299Y010596D01*
X041304Y010624D01*
X041306Y010652D01*
X041306Y011242D01*
X040519Y011597D02*
X035322Y011597D01*
X035322Y009668D01*
X035322Y008605D02*
X035322Y007423D01*
X035361Y006360D02*
X035361Y006046D01*
X035952Y012187D02*
X037566Y012187D01*
X035952Y012187D02*
X035952Y016990D01*
X037527Y016990D01*
X039141Y016951D02*
X040716Y016951D01*
X040716Y012187D02*
X039141Y012187D01*
D11*
X039177Y002476D02*
X038983Y002476D01*
X038882Y002476D02*
X038737Y002476D01*
X038688Y002428D01*
X038688Y002331D01*
X038737Y002283D01*
X038882Y002283D01*
X038882Y002186D02*
X038882Y002476D01*
X038785Y002283D02*
X038688Y002186D01*
X038587Y002283D02*
X038587Y002476D01*
X038587Y002283D02*
X038491Y002186D01*
X038394Y002283D01*
X038394Y002476D01*
X038293Y002428D02*
X038244Y002476D01*
X038148Y002476D01*
X038099Y002428D01*
X038099Y002235D01*
X038148Y002186D01*
X038244Y002186D01*
X038293Y002235D01*
X038293Y002428D01*
X038062Y002147D02*
X038062Y001953D01*
X038159Y002050D02*
X037965Y002050D01*
X037909Y002098D02*
X037860Y002050D01*
X037764Y002050D01*
X037715Y002002D01*
X037715Y001953D01*
X037764Y001905D01*
X037860Y001905D01*
X037909Y001953D01*
X037909Y002098D02*
X037909Y002147D01*
X037860Y002195D01*
X037764Y002195D01*
X037715Y002147D01*
X037614Y002195D02*
X037517Y002195D01*
X037566Y002195D02*
X037566Y001905D01*
X037614Y001905D02*
X037517Y001905D01*
X037418Y001953D02*
X037369Y001905D01*
X037273Y001905D01*
X037224Y001953D01*
X037224Y002050D01*
X037321Y002050D01*
X037418Y002147D02*
X037418Y001953D01*
X037418Y002147D02*
X037369Y002195D01*
X037273Y002195D01*
X037224Y002147D01*
X038965Y002050D02*
X039159Y002050D01*
X039177Y002186D02*
X038983Y002186D01*
X039080Y002331D02*
X039177Y002331D01*
X039278Y002283D02*
X039278Y002235D01*
X039326Y002186D01*
X039423Y002186D01*
X039471Y002235D01*
X039423Y002331D02*
X039326Y002331D01*
X039278Y002283D01*
X039177Y002186D02*
X039177Y002476D01*
X039278Y002428D02*
X039326Y002476D01*
X039423Y002476D01*
X039471Y002428D01*
X039471Y002380D01*
X039423Y002331D01*
X025618Y007167D02*
X025618Y007397D01*
X025503Y007397D01*
X025465Y007358D01*
X025465Y007282D01*
X025503Y007243D01*
X025618Y007243D01*
X025542Y007243D02*
X025465Y007167D01*
X025379Y007167D02*
X025226Y007397D01*
X025140Y007358D02*
X025101Y007397D01*
X025024Y007397D01*
X024986Y007358D01*
X025140Y007205D01*
X025101Y007167D01*
X025024Y007167D01*
X024986Y007205D01*
X024986Y007358D01*
X025140Y007358D02*
X025140Y007205D01*
X025226Y007167D02*
X025379Y007397D01*
X025379Y007917D02*
X025226Y008147D01*
X025140Y008108D02*
X025101Y008147D01*
X025024Y008147D01*
X024986Y008108D01*
X025140Y007955D01*
X025101Y007917D01*
X025024Y007917D01*
X024986Y007955D01*
X024986Y008108D01*
X025140Y008108D02*
X025140Y007955D01*
X025226Y007917D02*
X025379Y008147D01*
X025465Y008147D02*
X025618Y008147D01*
X025542Y008147D02*
X025542Y007917D01*
X024243Y006991D02*
X024243Y006760D01*
X024090Y006760D01*
X024004Y006799D02*
X023966Y006760D01*
X023889Y006760D01*
X023851Y006799D01*
X023851Y006837D01*
X023889Y006875D01*
X023966Y006875D01*
X024004Y006914D01*
X024004Y006952D01*
X023966Y006991D01*
X023889Y006991D01*
X023851Y006952D01*
X023765Y006991D02*
X023649Y006991D01*
X023611Y006952D01*
X023611Y006875D01*
X023649Y006837D01*
X023765Y006837D01*
X023765Y006760D02*
X023765Y006991D01*
X023525Y006875D02*
X023372Y006875D01*
X023286Y006991D02*
X023132Y006991D01*
X023209Y006991D02*
X023209Y006760D01*
X023046Y006760D02*
X022893Y006991D01*
X023046Y006991D02*
X022893Y006760D01*
X022893Y006241D02*
X023046Y006010D01*
X023132Y006010D02*
X023209Y006087D01*
X023171Y006087D02*
X023286Y006087D01*
X023286Y006010D02*
X023286Y006241D01*
X023171Y006241D01*
X023132Y006202D01*
X023132Y006125D01*
X023171Y006087D01*
X023046Y006241D02*
X022893Y006010D01*
X023372Y006125D02*
X023525Y006125D01*
X023611Y006125D02*
X023649Y006087D01*
X023765Y006087D01*
X023765Y006010D02*
X023765Y006241D01*
X023649Y006241D01*
X023611Y006202D01*
X023611Y006125D01*
X023851Y006087D02*
X023889Y006125D01*
X023966Y006125D01*
X024004Y006164D01*
X024004Y006202D01*
X023966Y006241D01*
X023889Y006241D01*
X023851Y006202D01*
X023851Y006087D02*
X023851Y006049D01*
X023889Y006010D01*
X023966Y006010D01*
X024004Y006049D01*
X024090Y006010D02*
X024243Y006010D01*
X024243Y006241D01*
X024090Y006241D01*
X024167Y006125D02*
X024243Y006125D01*
X024243Y006875D02*
X024167Y006875D01*
X024243Y006991D02*
X024090Y006991D01*
X021559Y007505D02*
X021559Y007562D01*
X021502Y007618D01*
X021436Y007618D02*
X021351Y007618D01*
X021323Y007590D01*
X021323Y007533D01*
X021351Y007505D01*
X021436Y007505D01*
X021436Y007448D02*
X021436Y007618D01*
X021395Y007763D02*
X021281Y007763D01*
X021210Y007763D02*
X021210Y007933D01*
X021125Y007933D01*
X021097Y007905D01*
X021097Y007848D01*
X021125Y007820D01*
X021210Y007820D01*
X021154Y007820D02*
X021097Y007763D01*
X021026Y007763D02*
X020970Y007763D01*
X020998Y007763D02*
X020998Y007933D01*
X021026Y007933D02*
X020970Y007933D01*
X020904Y007877D02*
X020847Y007933D01*
X020790Y007877D01*
X020790Y007763D01*
X020719Y007763D02*
X020606Y007763D01*
X020535Y007763D02*
X020422Y007848D01*
X020535Y007933D01*
X020351Y007933D02*
X020351Y007763D01*
X020238Y007763D01*
X020167Y007792D02*
X020139Y007763D01*
X020082Y007763D01*
X020053Y007792D01*
X020053Y007820D01*
X020082Y007848D01*
X020139Y007848D01*
X020167Y007877D01*
X020167Y007905D01*
X020139Y007933D01*
X020082Y007933D01*
X020053Y007905D01*
X019983Y007933D02*
X019898Y007933D01*
X019869Y007905D01*
X019869Y007848D01*
X019898Y007820D01*
X019983Y007820D01*
X019983Y007763D02*
X019983Y007933D01*
X020238Y007933D02*
X020351Y007933D01*
X020351Y007848D02*
X020294Y007848D01*
X020308Y007562D02*
X020279Y007533D01*
X020279Y007448D01*
X020336Y007448D02*
X020336Y007533D01*
X020308Y007562D01*
X020336Y007533D02*
X020364Y007562D01*
X020393Y007562D01*
X020393Y007448D01*
X020463Y007448D02*
X020549Y007448D01*
X020577Y007477D01*
X020549Y007505D01*
X020463Y007505D01*
X020463Y007533D02*
X020463Y007448D01*
X020463Y007533D02*
X020492Y007562D01*
X020549Y007562D01*
X020645Y007562D02*
X020674Y007562D01*
X020730Y007505D01*
X020730Y007448D02*
X020730Y007562D01*
X020801Y007562D02*
X020886Y007562D01*
X020915Y007533D01*
X020915Y007477D01*
X020886Y007448D01*
X020801Y007448D01*
X020801Y007420D02*
X020801Y007562D01*
X020801Y007420D02*
X020829Y007392D01*
X020858Y007392D01*
X020985Y007477D02*
X020985Y007533D01*
X021014Y007562D01*
X021070Y007562D01*
X021099Y007533D01*
X021099Y007477D01*
X021070Y007448D01*
X021014Y007448D01*
X020985Y007477D01*
X021167Y007562D02*
X021195Y007562D01*
X021252Y007505D01*
X021252Y007448D02*
X021252Y007562D01*
X021395Y007763D02*
X021395Y007933D01*
X021281Y007933D01*
X021338Y007848D02*
X021395Y007848D01*
X021465Y007820D02*
X021465Y007792D01*
X021494Y007763D01*
X021550Y007763D01*
X021579Y007792D01*
X021550Y007848D02*
X021494Y007848D01*
X021465Y007820D01*
X021465Y007905D02*
X021494Y007933D01*
X021550Y007933D01*
X021579Y007905D01*
X021579Y007877D01*
X021550Y007848D01*
X021559Y007505D02*
X021502Y007448D01*
X020904Y007763D02*
X020904Y007877D01*
X020904Y007848D02*
X020790Y007848D01*
X020719Y007933D02*
X020719Y007763D01*
X020024Y007618D02*
X020024Y007448D01*
X019911Y007448D01*
X019840Y007477D02*
X019812Y007448D01*
X019755Y007448D01*
X019727Y007477D01*
X019727Y007505D01*
X019755Y007533D01*
X019812Y007533D01*
X019840Y007562D01*
X019840Y007590D01*
X019812Y007618D01*
X019755Y007618D01*
X019727Y007590D01*
X019656Y007618D02*
X019571Y007618D01*
X019543Y007590D01*
X019543Y007533D01*
X019571Y007505D01*
X019656Y007505D01*
X019656Y007448D02*
X019656Y007618D01*
X019472Y007618D02*
X019415Y007562D01*
X019415Y007505D01*
X019472Y007448D01*
X019911Y007618D02*
X020024Y007618D01*
X020024Y007533D02*
X019968Y007533D01*
X020044Y008511D02*
X020044Y008625D01*
X019987Y008625D02*
X019959Y008625D01*
X019987Y008625D02*
X020044Y008568D01*
X020110Y008511D02*
X020139Y008540D01*
X020139Y008653D01*
X020167Y008625D02*
X020110Y008625D01*
X020238Y008596D02*
X020238Y008511D01*
X020238Y008596D02*
X020266Y008625D01*
X020351Y008625D01*
X020351Y008511D01*
X020422Y008540D02*
X020422Y008596D01*
X020450Y008625D01*
X020507Y008625D01*
X020535Y008596D01*
X020535Y008540D01*
X020507Y008511D01*
X020450Y008511D01*
X020422Y008540D01*
X020606Y008540D02*
X020634Y008511D01*
X020691Y008511D01*
X020719Y008540D01*
X020719Y008653D01*
X020691Y008681D01*
X020634Y008681D01*
X020606Y008653D01*
X020658Y008826D02*
X020658Y008996D01*
X020601Y008940D01*
X020545Y008996D01*
X020545Y008826D01*
X020474Y008855D02*
X020445Y008826D01*
X020389Y008826D01*
X020360Y008855D01*
X020360Y008968D01*
X020389Y008996D01*
X020445Y008996D01*
X020474Y008968D01*
X020474Y008855D01*
X020290Y008855D02*
X020290Y008968D01*
X020261Y008996D01*
X020205Y008996D01*
X020176Y008968D01*
X020176Y008855D01*
X020205Y008826D01*
X020261Y008826D01*
X020290Y008855D01*
X020106Y008996D02*
X019992Y008996D01*
X020049Y008996D02*
X020049Y008826D01*
X019921Y008826D02*
X019921Y008996D01*
X019921Y008911D02*
X019808Y008911D01*
X019808Y008996D02*
X019808Y008826D01*
X019737Y008826D02*
X019680Y008826D01*
X019709Y008826D02*
X019709Y008996D01*
X019737Y008996D02*
X019680Y008996D01*
X019614Y008996D02*
X019614Y008826D01*
X019501Y008826D01*
X019558Y008911D02*
X019614Y008911D01*
X019614Y008996D02*
X019501Y008996D01*
X019584Y008681D02*
X019527Y008625D01*
X019527Y008568D01*
X019584Y008511D01*
X019650Y008511D02*
X019707Y008511D01*
X019678Y008511D02*
X019678Y008681D01*
X019707Y008681D01*
X019777Y008596D02*
X019806Y008625D01*
X019862Y008625D01*
X019891Y008596D01*
X019891Y008540D01*
X019862Y008511D01*
X019806Y008511D01*
X019777Y008540D01*
X019777Y008596D01*
X020729Y008855D02*
X020757Y008826D01*
X020814Y008826D01*
X020842Y008855D01*
X020814Y008911D02*
X020757Y008911D01*
X020729Y008883D01*
X020729Y008855D01*
X020814Y008911D02*
X020842Y008940D01*
X020842Y008968D01*
X020814Y008996D01*
X020757Y008996D01*
X020729Y008968D01*
X020913Y008911D02*
X021026Y008826D01*
X021097Y008911D02*
X021125Y008883D01*
X021210Y008883D01*
X021210Y008826D02*
X021210Y008996D01*
X021125Y008996D01*
X021097Y008968D01*
X021097Y008911D01*
X021026Y008996D02*
X020913Y008911D01*
X020998Y008710D02*
X020998Y008681D01*
X020998Y008625D02*
X020998Y008511D01*
X021026Y008511D02*
X020970Y008511D01*
X020998Y008625D02*
X021026Y008625D01*
X021092Y008596D02*
X021149Y008596D01*
X021121Y008653D02*
X021092Y008681D01*
X021121Y008653D02*
X021121Y008511D01*
X021215Y008511D02*
X021272Y008511D01*
X021243Y008511D02*
X021243Y008625D01*
X021272Y008625D01*
X021243Y008681D02*
X021243Y008710D01*
X021343Y008681D02*
X021343Y008511D01*
X021399Y008568D01*
X021456Y008511D01*
X021456Y008681D01*
X021522Y008681D02*
X021579Y008625D01*
X021579Y008568D01*
X021522Y008511D01*
X021579Y008826D02*
X021465Y008826D01*
X021395Y008855D02*
X021366Y008826D01*
X021310Y008826D01*
X021281Y008855D01*
X021281Y008883D01*
X021310Y008911D01*
X021366Y008911D01*
X021395Y008940D01*
X021395Y008968D01*
X021366Y008996D01*
X021310Y008996D01*
X021281Y008968D01*
X021465Y008996D02*
X021579Y008996D01*
X021579Y008826D01*
X021579Y008911D02*
X021522Y008911D01*
X021522Y009594D02*
X021579Y009651D01*
X021579Y009707D01*
X021522Y009764D01*
X021456Y009764D02*
X021371Y009764D01*
X021343Y009736D01*
X021343Y009707D01*
X021371Y009679D01*
X021456Y009679D01*
X021456Y009594D02*
X021371Y009594D01*
X021343Y009622D01*
X021343Y009651D01*
X021371Y009679D01*
X021272Y009679D02*
X021272Y009622D01*
X021243Y009594D01*
X021187Y009594D01*
X021158Y009622D01*
X021158Y009679D01*
X021187Y009707D01*
X021243Y009707D01*
X021272Y009679D01*
X021088Y009679D02*
X021088Y009622D01*
X021059Y009594D01*
X021003Y009594D01*
X020974Y009622D01*
X020974Y009679D01*
X021003Y009707D01*
X021059Y009707D01*
X021088Y009679D01*
X020904Y009707D02*
X020847Y009707D01*
X020875Y009736D02*
X020875Y009622D01*
X020847Y009594D01*
X020781Y009594D02*
X020724Y009594D01*
X020752Y009594D02*
X020752Y009764D01*
X020781Y009764D01*
X020790Y009889D02*
X020790Y010003D01*
X020847Y010059D01*
X020904Y010003D01*
X020904Y009889D01*
X020970Y009889D02*
X021026Y009889D01*
X020998Y009889D02*
X020998Y010059D01*
X021026Y010059D02*
X020970Y010059D01*
X020904Y009974D02*
X020790Y009974D01*
X020719Y009889D02*
X020606Y009889D01*
X020535Y009889D02*
X020422Y009974D01*
X020535Y010059D01*
X020719Y010059D02*
X020719Y009889D01*
X020630Y009707D02*
X020658Y009679D01*
X020658Y009622D01*
X020630Y009594D01*
X020573Y009594D01*
X020545Y009622D01*
X020545Y009679D01*
X020573Y009707D01*
X020630Y009707D01*
X020474Y009622D02*
X020445Y009651D01*
X020360Y009651D01*
X020360Y009679D02*
X020360Y009594D01*
X020445Y009594D01*
X020474Y009622D01*
X020445Y009707D02*
X020389Y009707D01*
X020360Y009679D01*
X020290Y009679D02*
X020261Y009707D01*
X020176Y009707D01*
X020176Y009764D02*
X020176Y009594D01*
X020261Y009594D01*
X020290Y009622D01*
X020290Y009679D01*
X020106Y009594D02*
X020049Y009651D01*
X020049Y009707D01*
X020106Y009764D01*
X020053Y009889D02*
X020053Y010059D01*
X020110Y010003D01*
X020167Y010059D01*
X020167Y009889D01*
X020238Y009918D02*
X020266Y009889D01*
X020323Y009889D01*
X020351Y009918D01*
X020323Y009974D02*
X020266Y009974D01*
X020238Y009946D01*
X020238Y009918D01*
X020323Y009974D02*
X020351Y010003D01*
X020351Y010031D01*
X020323Y010059D01*
X020266Y010059D01*
X020238Y010031D01*
X019983Y010031D02*
X019983Y009918D01*
X019954Y009889D01*
X019898Y009889D01*
X019869Y009918D01*
X019869Y010031D01*
X019898Y010059D01*
X019954Y010059D01*
X019983Y010031D01*
X019799Y010031D02*
X019799Y009918D01*
X019770Y009889D01*
X019714Y009889D01*
X019685Y009918D01*
X019685Y010031D01*
X019714Y010059D01*
X019770Y010059D01*
X019799Y010031D01*
X019614Y010059D02*
X019501Y010059D01*
X019558Y010059D02*
X019558Y009889D01*
X019430Y009889D02*
X019430Y010059D01*
X019430Y009974D02*
X019317Y009974D01*
X019317Y010059D02*
X019317Y009889D01*
X019246Y009889D02*
X019189Y009889D01*
X019218Y009889D02*
X019218Y010059D01*
X019246Y010059D02*
X019189Y010059D01*
X019123Y010059D02*
X019123Y009889D01*
X019010Y009889D01*
X019067Y009974D02*
X019123Y009974D01*
X019123Y010059D02*
X019010Y010059D01*
X021097Y010031D02*
X021097Y009974D01*
X021125Y009946D01*
X021210Y009946D01*
X021154Y009946D02*
X021097Y009889D01*
X021210Y009889D02*
X021210Y010059D01*
X021125Y010059D01*
X021097Y010031D01*
X021281Y010059D02*
X021395Y010059D01*
X021395Y009889D01*
X021281Y009889D01*
X021338Y009974D02*
X021395Y009974D01*
X021465Y009946D02*
X021465Y009918D01*
X021494Y009889D01*
X021550Y009889D01*
X021579Y009918D01*
X021550Y009974D02*
X021494Y009974D01*
X021465Y009946D01*
X021465Y010031D02*
X021494Y010059D01*
X021550Y010059D01*
X021579Y010031D01*
X021579Y010003D01*
X021550Y009974D01*
X021456Y009764D02*
X021456Y009594D01*
X016690Y001818D02*
X016400Y001818D01*
X016545Y001866D02*
X016545Y001673D01*
X016690Y001818D01*
X016690Y001572D02*
X016400Y001572D01*
X016400Y001378D02*
X016690Y001378D01*
X016593Y001475D01*
X016690Y001572D01*
X013690Y001572D02*
X013400Y001572D01*
X013545Y001673D02*
X013545Y001866D01*
X013400Y001818D02*
X013690Y001818D01*
X013545Y001673D01*
X013690Y001572D02*
X013593Y001475D01*
X013690Y001378D01*
X013400Y001378D01*
X010690Y001378D02*
X010593Y001475D01*
X010690Y001572D01*
X010400Y001572D01*
X010545Y001673D02*
X010545Y001866D01*
X010400Y001818D02*
X010690Y001818D01*
X010545Y001673D01*
X010400Y001378D02*
X010690Y001378D01*
X007690Y001378D02*
X007593Y001475D01*
X007690Y001572D01*
X007400Y001572D01*
X007545Y001673D02*
X007545Y001866D01*
X007400Y001818D02*
X007690Y001818D01*
X007545Y001673D01*
X007400Y001378D02*
X007690Y001378D01*
X004128Y014499D02*
X003838Y014499D01*
X003983Y014499D02*
X003983Y014692D01*
X003983Y014793D02*
X003983Y014890D01*
X004128Y014793D02*
X003838Y014793D01*
X003838Y014987D01*
X003838Y015088D02*
X004031Y015088D01*
X004128Y015185D01*
X004031Y015281D01*
X003838Y015281D01*
X003983Y015281D02*
X003983Y015088D01*
X004128Y014987D02*
X004128Y014793D01*
X004128Y014692D02*
X003838Y014692D01*
X003648Y014644D02*
X003599Y014692D01*
X003406Y014692D01*
X003358Y014644D01*
X003358Y014547D01*
X003406Y014499D01*
X003599Y014499D01*
X003648Y014547D01*
X003648Y014644D01*
X003648Y014793D02*
X003406Y014793D01*
X003358Y014842D01*
X003358Y014938D01*
X003406Y014987D01*
X003648Y014987D01*
X003648Y015088D02*
X003648Y015281D01*
X003648Y015185D02*
X003358Y015185D01*
X003838Y015479D02*
X004128Y015479D01*
X004128Y015383D02*
X004128Y015576D01*
X004128Y015677D02*
X004128Y015822D01*
X004079Y015871D01*
X004031Y015871D01*
X003983Y015822D01*
X003983Y015677D01*
X003838Y015677D02*
X004128Y015677D01*
X003983Y015822D02*
X003934Y015871D01*
X003886Y015871D01*
X003838Y015822D01*
X003838Y015677D01*
X003838Y015972D02*
X003838Y016165D01*
X003838Y016267D02*
X003838Y016412D01*
X003886Y016460D01*
X004079Y016460D01*
X004128Y016412D01*
X004128Y016267D01*
X003838Y016267D01*
X003983Y016069D02*
X003983Y015972D01*
X004128Y015972D02*
X003838Y015972D01*
X004128Y015972D02*
X004128Y016165D01*
D12*
X022125Y010170D02*
X023346Y010170D01*
X023346Y009382D02*
X022007Y009382D01*
X022165Y009107D02*
X023188Y009107D01*
X023306Y008319D02*
X022283Y008319D01*
D13*
X022165Y008044D02*
X023188Y008044D01*
X023385Y007256D02*
X022086Y007256D01*
D14*
X021771Y007256D02*
X022401Y007256D01*
X022401Y007255D02*
X022420Y007255D01*
X022439Y007259D01*
X022457Y007265D01*
X022473Y007274D01*
X022488Y007287D01*
X022500Y007301D01*
X022510Y007318D01*
X022516Y007336D01*
X022520Y007354D01*
X022519Y007355D02*
X022519Y007945D01*
X022520Y007945D02*
X022516Y007964D01*
X022510Y007981D01*
X022500Y007998D01*
X022488Y008012D01*
X022473Y008024D01*
X022457Y008034D01*
X022439Y008040D01*
X022420Y008044D01*
X022401Y008044D01*
X021771Y008044D01*
X021752Y008044D01*
X021733Y008040D01*
X021715Y008034D01*
X021699Y008024D01*
X021684Y008012D01*
X021672Y007998D01*
X021662Y007981D01*
X021656Y007964D01*
X021652Y007945D01*
X021653Y007945D02*
X021653Y007355D01*
X021652Y007354D02*
X021656Y007335D01*
X021662Y007318D01*
X021672Y007301D01*
X021684Y007287D01*
X021699Y007275D01*
X021715Y007265D01*
X021733Y007259D01*
X021752Y007255D01*
X021771Y007255D01*
X022913Y007355D02*
X022913Y007945D01*
X022912Y007945D02*
X022916Y007964D01*
X022922Y007981D01*
X022932Y007998D01*
X022944Y008012D01*
X022959Y008024D01*
X022975Y008034D01*
X022993Y008040D01*
X023012Y008044D01*
X023031Y008044D01*
X023661Y008044D01*
X023680Y008044D01*
X023699Y008040D01*
X023717Y008034D01*
X023733Y008024D01*
X023748Y008012D01*
X023760Y007998D01*
X023770Y007981D01*
X023776Y007964D01*
X023780Y007945D01*
X023779Y007945D02*
X023779Y007355D01*
X023780Y007354D02*
X023776Y007336D01*
X023770Y007318D01*
X023760Y007301D01*
X023748Y007287D01*
X023733Y007274D01*
X023717Y007265D01*
X023699Y007259D01*
X023680Y007255D01*
X023661Y007255D01*
X023661Y007256D02*
X023031Y007256D01*
X023031Y007255D02*
X023012Y007255D01*
X022993Y007259D01*
X022975Y007265D01*
X022959Y007275D01*
X022944Y007287D01*
X022932Y007301D01*
X022922Y007318D01*
X022916Y007335D01*
X022912Y007354D01*
X023031Y008319D02*
X023661Y008319D01*
X023661Y008318D02*
X023680Y008318D01*
X023699Y008322D01*
X023717Y008328D01*
X023733Y008338D01*
X023748Y008350D01*
X023760Y008364D01*
X023770Y008381D01*
X023776Y008398D01*
X023780Y008417D01*
X023779Y008418D02*
X023779Y009008D01*
X023780Y009008D02*
X023776Y009027D01*
X023770Y009044D01*
X023760Y009061D01*
X023748Y009075D01*
X023733Y009087D01*
X023717Y009097D01*
X023699Y009103D01*
X023680Y009107D01*
X023661Y009107D01*
X023031Y009107D01*
X023012Y009107D01*
X022993Y009103D01*
X022975Y009097D01*
X022959Y009088D01*
X022944Y009075D01*
X022932Y009061D01*
X022922Y009044D01*
X022916Y009026D01*
X022912Y009008D01*
X022913Y009008D02*
X022913Y008418D01*
X022912Y008417D02*
X022916Y008398D01*
X022922Y008381D01*
X022932Y008364D01*
X022944Y008350D01*
X022959Y008338D01*
X022975Y008328D01*
X022993Y008322D01*
X023012Y008318D01*
X023031Y008318D01*
X022519Y008418D02*
X022519Y009008D01*
X022520Y009008D02*
X022516Y009027D01*
X022510Y009044D01*
X022500Y009061D01*
X022488Y009075D01*
X022473Y009087D01*
X022457Y009097D01*
X022439Y009103D01*
X022420Y009107D01*
X022401Y009107D01*
X021771Y009107D01*
X021752Y009107D01*
X021733Y009103D01*
X021715Y009097D01*
X021699Y009088D01*
X021684Y009075D01*
X021672Y009061D01*
X021662Y009044D01*
X021656Y009026D01*
X021652Y009008D01*
X021653Y009008D02*
X021653Y008418D01*
X021652Y008417D02*
X021656Y008398D01*
X021662Y008381D01*
X021672Y008364D01*
X021684Y008350D01*
X021699Y008338D01*
X021715Y008328D01*
X021733Y008322D01*
X021752Y008318D01*
X021771Y008318D01*
X021771Y008319D02*
X022401Y008319D01*
X022401Y008318D02*
X022420Y008318D01*
X022439Y008322D01*
X022457Y008328D01*
X022473Y008338D01*
X022488Y008350D01*
X022500Y008364D01*
X022510Y008381D01*
X022516Y008398D01*
X022520Y008417D01*
X022401Y009382D02*
X021771Y009382D01*
X021771Y009381D02*
X021752Y009381D01*
X021733Y009385D01*
X021715Y009391D01*
X021699Y009401D01*
X021684Y009413D01*
X021672Y009427D01*
X021662Y009444D01*
X021656Y009461D01*
X021652Y009480D01*
X021653Y009481D02*
X021653Y010071D01*
X021652Y010071D02*
X021656Y010089D01*
X021662Y010107D01*
X021672Y010124D01*
X021684Y010138D01*
X021699Y010151D01*
X021715Y010160D01*
X021733Y010166D01*
X021752Y010170D01*
X021771Y010170D01*
X022401Y010170D01*
X022420Y010170D01*
X022439Y010166D01*
X022457Y010160D01*
X022473Y010150D01*
X022488Y010138D01*
X022500Y010124D01*
X022510Y010107D01*
X022516Y010090D01*
X022520Y010071D01*
X022519Y010071D02*
X022519Y009481D01*
X022520Y009480D02*
X022516Y009461D01*
X022510Y009444D01*
X022500Y009427D01*
X022488Y009413D01*
X022473Y009401D01*
X022457Y009391D01*
X022439Y009385D01*
X022420Y009381D01*
X022401Y009381D01*
X022913Y009481D02*
X022913Y010071D01*
X022912Y010071D02*
X022916Y010089D01*
X022922Y010107D01*
X022932Y010124D01*
X022944Y010138D01*
X022959Y010151D01*
X022975Y010160D01*
X022993Y010166D01*
X023012Y010170D01*
X023031Y010170D01*
X023661Y010170D01*
X023680Y010170D01*
X023699Y010166D01*
X023717Y010160D01*
X023733Y010150D01*
X023748Y010138D01*
X023760Y010124D01*
X023770Y010107D01*
X023776Y010090D01*
X023780Y010071D01*
X023779Y010071D02*
X023779Y009481D01*
X023780Y009480D02*
X023776Y009461D01*
X023770Y009444D01*
X023760Y009427D01*
X023748Y009413D01*
X023733Y009401D01*
X023717Y009391D01*
X023699Y009385D01*
X023680Y009381D01*
X023661Y009381D01*
X023661Y009382D02*
X023031Y009382D01*
X023031Y009381D02*
X023012Y009381D01*
X022993Y009385D01*
X022975Y009391D01*
X022959Y009401D01*
X022944Y009413D01*
X022932Y009427D01*
X022922Y009444D01*
X022916Y009461D01*
X022912Y009480D01*
X019343Y007297D02*
X019343Y006697D01*
X019341Y006680D01*
X019337Y006663D01*
X019330Y006647D01*
X019320Y006633D01*
X019307Y006620D01*
X019293Y006610D01*
X019277Y006603D01*
X019260Y006599D01*
X019243Y006597D01*
X018243Y006597D01*
X018226Y006599D01*
X018209Y006603D01*
X018193Y006610D01*
X018179Y006620D01*
X018166Y006633D01*
X018156Y006647D01*
X018149Y006663D01*
X018145Y006680D01*
X018143Y006697D01*
X018143Y007297D01*
X018145Y007314D01*
X018149Y007331D01*
X018156Y007347D01*
X018166Y007361D01*
X018179Y007374D01*
X018193Y007384D01*
X018209Y007391D01*
X018226Y007395D01*
X018243Y007397D01*
X019243Y007397D01*
X019260Y007395D01*
X019277Y007391D01*
X019293Y007384D01*
X019307Y007374D01*
X019320Y007361D01*
X019330Y007347D01*
X019337Y007331D01*
X019341Y007314D01*
X019343Y007297D01*
X031889Y021911D02*
X032003Y021911D01*
X032059Y021968D01*
X032059Y022081D01*
X032003Y022138D01*
X031889Y022138D01*
X031833Y022081D01*
X031833Y022025D01*
X032059Y022025D01*
X032196Y022138D02*
X032253Y022138D01*
X032366Y022025D01*
X032366Y022138D02*
X032366Y021911D01*
X032508Y021911D02*
X032508Y022081D01*
X032565Y022138D01*
X032678Y022138D01*
X032678Y022025D02*
X032508Y022025D01*
X032508Y021911D02*
X032678Y021911D01*
X032735Y021968D01*
X032678Y022025D01*
X032876Y021968D02*
X032876Y022138D01*
X032876Y021968D02*
X032933Y021911D01*
X032990Y021968D01*
X033046Y021911D01*
X033103Y021968D01*
X033103Y022138D01*
X033245Y022081D02*
X033245Y022025D01*
X033471Y022025D01*
X033471Y022081D02*
X033415Y022138D01*
X033301Y022138D01*
X033245Y022081D01*
X033301Y021911D02*
X033415Y021911D01*
X033471Y021968D01*
X033471Y022081D01*
X033660Y022138D02*
X033660Y021911D01*
X033717Y021911D02*
X033603Y021911D01*
X033660Y022138D02*
X033717Y022138D01*
X033660Y022251D02*
X033660Y022308D01*
X033858Y022081D02*
X033858Y021911D01*
X033858Y022081D02*
X033915Y022138D01*
X034029Y022138D01*
X034085Y022081D01*
X034217Y022138D02*
X034331Y022138D01*
X034274Y022195D02*
X034274Y021968D01*
X034217Y021911D01*
X034085Y021911D02*
X034085Y022251D01*
X034472Y022081D02*
X034472Y021968D01*
X034529Y021911D01*
X034642Y021911D01*
X034699Y021968D01*
X034699Y022081D01*
X034642Y022138D01*
X034529Y022138D01*
X034472Y022081D01*
X034841Y022081D02*
X034841Y021968D01*
X034897Y021911D01*
X035011Y021911D01*
X035067Y021968D01*
X035067Y022081D01*
X035011Y022138D01*
X034897Y022138D01*
X034841Y022081D01*
X035209Y022081D02*
X035209Y021911D01*
X035322Y021911D02*
X035322Y022081D01*
X035266Y022138D01*
X035209Y022081D01*
X035322Y022081D02*
X035379Y022138D01*
X035436Y022138D01*
X035436Y021911D01*
X035577Y021968D02*
X035577Y022025D01*
X035634Y022081D01*
X035747Y022081D01*
X035804Y022138D01*
X035804Y022195D01*
X035747Y022251D01*
X035634Y022251D01*
X035577Y022195D01*
X035577Y021968D02*
X035634Y021911D01*
X035747Y021911D01*
X035804Y021968D01*
X036314Y021911D02*
X036484Y021911D01*
X036541Y021968D01*
X036541Y022138D01*
X036682Y022081D02*
X036739Y022138D01*
X036909Y022138D01*
X036909Y022251D02*
X036909Y021911D01*
X036739Y021911D01*
X036682Y021968D01*
X036682Y022081D01*
X036314Y022138D02*
X036314Y021854D01*
X036371Y021798D01*
X036427Y021798D01*
X037419Y021911D02*
X037589Y021911D01*
X037646Y021968D01*
X037646Y022081D01*
X037589Y022138D01*
X037419Y022138D01*
X037419Y022251D02*
X037419Y021911D01*
X037787Y022025D02*
X038014Y022025D01*
X038014Y022081D02*
X037957Y022138D01*
X037844Y022138D01*
X037787Y022081D01*
X037787Y022025D01*
X037844Y021911D02*
X037957Y021911D01*
X038014Y021968D01*
X038014Y022081D01*
X038151Y022138D02*
X038207Y022138D01*
X038321Y022025D01*
X038321Y022138D02*
X038321Y021911D01*
X038462Y022025D02*
X038689Y022025D01*
X038689Y022081D02*
X038632Y022138D01*
X038519Y022138D01*
X038462Y022081D01*
X038462Y022025D01*
X038519Y021911D02*
X038632Y021911D01*
X038689Y021968D01*
X038689Y022081D01*
X038831Y022138D02*
X038831Y021968D01*
X038887Y021911D01*
X038944Y021968D01*
X039001Y021911D01*
X039057Y021968D01*
X039057Y022138D01*
X039199Y022081D02*
X039199Y021968D01*
X039256Y021911D01*
X039369Y021911D01*
X039426Y021968D01*
X039426Y022081D01*
X039369Y022138D01*
X039256Y022138D01*
X039199Y022081D01*
X039567Y022081D02*
X039624Y022025D01*
X039794Y022025D01*
X039794Y021911D02*
X039794Y022251D01*
X039624Y022251D01*
X039567Y022195D01*
X039567Y022081D01*
X039624Y023048D02*
X039567Y023104D01*
X039567Y023388D01*
X039737Y023388D01*
X039794Y023331D01*
X039794Y023218D01*
X039737Y023161D01*
X039567Y023161D01*
X039624Y023048D02*
X039681Y023048D01*
X039426Y023161D02*
X039312Y023161D01*
X039369Y023161D02*
X039369Y023388D01*
X039426Y023388D01*
X039369Y023501D02*
X039369Y023558D01*
X039369Y023658D02*
X039426Y023715D01*
X039369Y023772D01*
X039199Y023772D01*
X039199Y023828D02*
X039199Y023658D01*
X039369Y023658D01*
X039567Y023715D02*
X039624Y023658D01*
X039794Y023658D01*
X039794Y023998D01*
X039624Y023998D01*
X039567Y023942D01*
X039567Y023885D01*
X039624Y023828D01*
X039794Y023828D01*
X039624Y023828D02*
X039567Y023772D01*
X039567Y023715D01*
X039369Y023885D02*
X039256Y023885D01*
X039199Y023828D01*
X039057Y023828D02*
X039001Y023885D01*
X038831Y023885D01*
X038887Y023772D02*
X039001Y023772D01*
X039057Y023828D01*
X039057Y023658D02*
X038887Y023658D01*
X038831Y023715D01*
X038887Y023772D01*
X038689Y023772D02*
X038462Y023772D01*
X038462Y023828D01*
X038519Y023885D01*
X038632Y023885D01*
X038689Y023828D01*
X038689Y023715D01*
X038632Y023658D01*
X038519Y023658D01*
X038321Y023715D02*
X038321Y023828D01*
X038264Y023885D01*
X038094Y023885D01*
X038094Y023998D02*
X038094Y023658D01*
X038264Y023658D01*
X038321Y023715D01*
X038198Y023501D02*
X038198Y023161D01*
X038028Y023161D01*
X037971Y023218D01*
X037971Y023331D01*
X038028Y023388D01*
X038198Y023388D01*
X038340Y023388D02*
X038340Y023161D01*
X038510Y023161D01*
X038566Y023218D01*
X038566Y023388D01*
X038708Y023331D02*
X038708Y023161D01*
X038708Y023331D02*
X038765Y023388D01*
X038878Y023388D01*
X038935Y023331D01*
X039067Y023388D02*
X039180Y023388D01*
X039124Y023445D02*
X039124Y023218D01*
X039067Y023161D01*
X038935Y023161D02*
X038935Y023501D01*
X037830Y023218D02*
X037773Y023218D01*
X037773Y023161D01*
X037830Y023161D01*
X037830Y023218D01*
X037646Y023218D02*
X037646Y023331D01*
X037589Y023388D01*
X037419Y023388D01*
X037277Y023331D02*
X037277Y023218D01*
X037221Y023161D01*
X037107Y023161D01*
X037050Y023218D01*
X037050Y023331D01*
X037107Y023388D01*
X037221Y023388D01*
X037277Y023331D01*
X037419Y023161D02*
X037589Y023161D01*
X037646Y023218D01*
X036909Y023161D02*
X036909Y023388D01*
X036852Y023388D01*
X036796Y023331D01*
X036739Y023388D01*
X036682Y023331D01*
X036682Y023161D01*
X036796Y023161D02*
X036796Y023331D01*
X036541Y023161D02*
X036314Y023501D01*
X036309Y023658D02*
X036252Y023715D01*
X036252Y023885D01*
X036111Y023828D02*
X036111Y023715D01*
X036054Y023658D01*
X035941Y023658D01*
X035884Y023715D01*
X035884Y023828D01*
X035941Y023885D01*
X036054Y023885D01*
X036111Y023828D01*
X036309Y023658D02*
X036366Y023715D01*
X036423Y023658D01*
X036479Y023715D01*
X036479Y023885D01*
X036989Y023828D02*
X036989Y023658D01*
X036989Y023828D02*
X037046Y023885D01*
X037216Y023885D01*
X037216Y023658D01*
X037357Y023715D02*
X037357Y023828D01*
X037414Y023885D01*
X037527Y023885D01*
X037584Y023828D01*
X037584Y023715D01*
X037527Y023658D01*
X037414Y023658D01*
X037357Y023715D01*
X036172Y023331D02*
X036172Y023218D01*
X036116Y023161D01*
X036002Y023161D01*
X035945Y023218D01*
X035945Y023331D01*
X036002Y023388D01*
X036116Y023388D01*
X036172Y023331D01*
X035804Y023388D02*
X035804Y023048D01*
X035804Y023161D02*
X035634Y023161D01*
X035577Y023218D01*
X035577Y023331D01*
X035634Y023388D01*
X035804Y023388D01*
X035743Y023658D02*
X035743Y023885D01*
X035743Y023772D02*
X035629Y023885D01*
X035572Y023885D01*
X035436Y023772D02*
X035266Y023885D01*
X035436Y023772D02*
X035266Y023658D01*
X035436Y023658D02*
X035436Y023998D01*
X035379Y023388D02*
X035266Y023388D01*
X035209Y023331D01*
X035209Y023275D01*
X035436Y023275D01*
X035436Y023331D02*
X035379Y023388D01*
X035436Y023331D02*
X035436Y023218D01*
X035379Y023161D01*
X035266Y023161D01*
X035067Y023161D02*
X035067Y023388D01*
X034897Y023388D01*
X034841Y023331D01*
X034841Y023161D01*
X034699Y023161D02*
X034699Y023501D01*
X034642Y023388D02*
X034529Y023388D01*
X034472Y023331D01*
X034472Y023161D01*
X034331Y023218D02*
X034274Y023275D01*
X034104Y023275D01*
X034104Y023331D02*
X034104Y023161D01*
X034274Y023161D01*
X034331Y023218D01*
X034274Y023388D02*
X034161Y023388D01*
X034104Y023331D01*
X033962Y023275D02*
X033849Y023388D01*
X033792Y023388D01*
X033656Y023331D02*
X033656Y023218D01*
X033599Y023161D01*
X033429Y023161D01*
X033429Y023501D01*
X033429Y023388D02*
X033599Y023388D01*
X033656Y023331D01*
X033962Y023388D02*
X033962Y023161D01*
X034038Y023658D02*
X033981Y023715D01*
X033981Y023828D01*
X034038Y023885D01*
X034151Y023885D01*
X034208Y023828D01*
X034208Y023715D01*
X034151Y023658D01*
X034038Y023658D01*
X033840Y023658D02*
X033840Y023885D01*
X033783Y023885D01*
X033726Y023828D01*
X033670Y023885D01*
X033613Y023828D01*
X033613Y023658D01*
X033726Y023658D02*
X033726Y023828D01*
X033471Y023828D02*
X033471Y023885D01*
X033415Y023885D01*
X033415Y023828D01*
X033471Y023828D01*
X033471Y023715D02*
X033471Y023658D01*
X033415Y023658D01*
X033415Y023715D01*
X033471Y023715D01*
X033287Y023388D02*
X033287Y023218D01*
X033230Y023161D01*
X033174Y023218D01*
X033117Y023161D01*
X033060Y023218D01*
X033060Y023388D01*
X032862Y023388D02*
X032749Y023388D01*
X032692Y023331D01*
X032692Y023161D01*
X032862Y023161D01*
X032919Y023218D01*
X032862Y023275D01*
X032692Y023275D01*
X032551Y023275D02*
X032437Y023388D01*
X032380Y023388D01*
X032244Y023331D02*
X032187Y023388D01*
X032074Y023388D01*
X032017Y023331D01*
X032017Y023275D01*
X032244Y023275D01*
X032244Y023331D02*
X032244Y023218D01*
X032187Y023161D01*
X032074Y023161D01*
X031875Y023218D02*
X031875Y023331D01*
X031819Y023388D01*
X031648Y023388D01*
X031507Y023331D02*
X031507Y023218D01*
X031450Y023161D01*
X031337Y023161D01*
X031280Y023218D01*
X031280Y023331D01*
X031337Y023388D01*
X031450Y023388D01*
X031507Y023331D01*
X031648Y023161D02*
X031819Y023161D01*
X031875Y023218D01*
X031139Y023161D02*
X030912Y023161D01*
X030770Y023218D02*
X030714Y023275D01*
X030544Y023275D01*
X030544Y023331D02*
X030544Y023161D01*
X030714Y023161D01*
X030770Y023218D01*
X030714Y023388D02*
X030600Y023388D01*
X030544Y023331D01*
X030912Y023388D02*
X031139Y023161D01*
X031139Y023388D02*
X030912Y023388D01*
X032551Y023388D02*
X032551Y023161D01*
X034345Y023885D02*
X034401Y023885D01*
X034515Y023772D01*
X034515Y023885D02*
X034515Y023658D01*
X034704Y023658D02*
X034704Y023942D01*
X034647Y023998D01*
X034647Y023828D02*
X034760Y023828D01*
X034642Y023388D02*
X034699Y023331D01*
X033130Y030740D02*
X032030Y030740D01*
X032013Y030742D01*
X031996Y030746D01*
X031980Y030753D01*
X031966Y030763D01*
X031953Y030776D01*
X031943Y030790D01*
X031936Y030806D01*
X031932Y030823D01*
X031930Y030840D01*
X031930Y031440D01*
X031932Y031457D01*
X031936Y031474D01*
X031943Y031490D01*
X031953Y031504D01*
X031966Y031517D01*
X031980Y031527D01*
X031996Y031534D01*
X032013Y031538D01*
X032030Y031540D01*
X033130Y031540D01*
X033147Y031538D01*
X033164Y031534D01*
X033180Y031527D01*
X033194Y031517D01*
X033207Y031504D01*
X033217Y031490D01*
X033224Y031474D01*
X033228Y031457D01*
X033230Y031440D01*
X033230Y030840D01*
X033228Y030823D01*
X033224Y030806D01*
X033217Y030790D01*
X033207Y030776D01*
X033194Y030763D01*
X033180Y030753D01*
X033164Y030746D01*
X033147Y030742D01*
X033130Y030740D01*
X033130Y031740D02*
X032030Y031740D01*
X032013Y031742D01*
X031996Y031746D01*
X031980Y031753D01*
X031966Y031763D01*
X031953Y031776D01*
X031943Y031790D01*
X031936Y031806D01*
X031932Y031823D01*
X031930Y031840D01*
X031930Y032440D01*
X031932Y032457D01*
X031936Y032474D01*
X031943Y032490D01*
X031953Y032504D01*
X031966Y032517D01*
X031980Y032527D01*
X031996Y032534D01*
X032013Y032538D01*
X032030Y032540D01*
X033130Y032540D01*
X033147Y032538D01*
X033164Y032534D01*
X033180Y032527D01*
X033194Y032517D01*
X033207Y032504D01*
X033217Y032490D01*
X033224Y032474D01*
X033228Y032457D01*
X033230Y032440D01*
X033230Y031840D01*
X033228Y031823D01*
X033224Y031806D01*
X033217Y031790D01*
X033207Y031776D01*
X033194Y031763D01*
X033180Y031753D01*
X033164Y031746D01*
X033147Y031742D01*
X033130Y031740D01*
X033130Y032740D02*
X032030Y032740D01*
X032013Y032742D01*
X031996Y032746D01*
X031980Y032753D01*
X031966Y032763D01*
X031953Y032776D01*
X031943Y032790D01*
X031936Y032806D01*
X031932Y032823D01*
X031930Y032840D01*
X031930Y033440D01*
X031932Y033457D01*
X031936Y033474D01*
X031943Y033490D01*
X031953Y033504D01*
X031966Y033517D01*
X031980Y033527D01*
X031996Y033534D01*
X032013Y033538D01*
X032030Y033540D01*
X033130Y033540D01*
X033147Y033538D01*
X033164Y033534D01*
X033180Y033527D01*
X033194Y033517D01*
X033207Y033504D01*
X033217Y033490D01*
X033224Y033474D01*
X033228Y033457D01*
X033230Y033440D01*
X033230Y032840D01*
X033228Y032823D01*
X033224Y032806D01*
X033217Y032790D01*
X033207Y032776D01*
X033194Y032763D01*
X033180Y032753D01*
X033164Y032746D01*
X033147Y032742D01*
X033130Y032740D01*
X037930Y032840D02*
X037930Y033440D01*
X037932Y033457D01*
X037936Y033474D01*
X037943Y033490D01*
X037953Y033504D01*
X037966Y033517D01*
X037980Y033527D01*
X037996Y033534D01*
X038013Y033538D01*
X038030Y033540D01*
X039130Y033540D01*
X039147Y033538D01*
X039164Y033534D01*
X039180Y033527D01*
X039194Y033517D01*
X039207Y033504D01*
X039217Y033490D01*
X039224Y033474D01*
X039228Y033457D01*
X039230Y033440D01*
X039230Y032840D01*
X039228Y032823D01*
X039224Y032806D01*
X039217Y032790D01*
X039207Y032776D01*
X039194Y032763D01*
X039180Y032753D01*
X039164Y032746D01*
X039147Y032742D01*
X039130Y032740D01*
X038030Y032740D01*
X038013Y032742D01*
X037996Y032746D01*
X037980Y032753D01*
X037966Y032763D01*
X037953Y032776D01*
X037943Y032790D01*
X037936Y032806D01*
X037932Y032823D01*
X037930Y032840D01*
X038030Y032540D02*
X039130Y032540D01*
X039147Y032538D01*
X039164Y032534D01*
X039180Y032527D01*
X039194Y032517D01*
X039207Y032504D01*
X039217Y032490D01*
X039224Y032474D01*
X039228Y032457D01*
X039230Y032440D01*
X039230Y031840D01*
X039228Y031823D01*
X039224Y031806D01*
X039217Y031790D01*
X039207Y031776D01*
X039194Y031763D01*
X039180Y031753D01*
X039164Y031746D01*
X039147Y031742D01*
X039130Y031740D01*
X038030Y031740D01*
X038013Y031742D01*
X037996Y031746D01*
X037980Y031753D01*
X037966Y031763D01*
X037953Y031776D01*
X037943Y031790D01*
X037936Y031806D01*
X037932Y031823D01*
X037930Y031840D01*
X037930Y032440D01*
X037932Y032457D01*
X037936Y032474D01*
X037943Y032490D01*
X037953Y032504D01*
X037966Y032517D01*
X037980Y032527D01*
X037996Y032534D01*
X038013Y032538D01*
X038030Y032540D01*
X038030Y031540D02*
X039130Y031540D01*
X039147Y031538D01*
X039164Y031534D01*
X039180Y031527D01*
X039194Y031517D01*
X039207Y031504D01*
X039217Y031490D01*
X039224Y031474D01*
X039228Y031457D01*
X039230Y031440D01*
X039230Y030840D01*
X039228Y030823D01*
X039224Y030806D01*
X039217Y030790D01*
X039207Y030776D01*
X039194Y030763D01*
X039180Y030753D01*
X039164Y030746D01*
X039147Y030742D01*
X039130Y030740D01*
X038030Y030740D01*
X038013Y030742D01*
X037996Y030746D01*
X037980Y030753D01*
X037966Y030763D01*
X037953Y030776D01*
X037943Y030790D01*
X037936Y030806D01*
X037932Y030823D01*
X037930Y030840D01*
X037930Y031440D01*
X037932Y031457D01*
X037936Y031474D01*
X037943Y031490D01*
X037953Y031504D01*
X037966Y031517D01*
X037980Y031527D01*
X037996Y031534D01*
X038013Y031538D01*
X038030Y031540D01*
X027230Y031440D02*
X027230Y030840D01*
X027228Y030823D01*
X027224Y030806D01*
X027217Y030790D01*
X027207Y030776D01*
X027194Y030763D01*
X027180Y030753D01*
X027164Y030746D01*
X027147Y030742D01*
X027130Y030740D01*
X026030Y030740D01*
X026013Y030742D01*
X025996Y030746D01*
X025980Y030753D01*
X025966Y030763D01*
X025953Y030776D01*
X025943Y030790D01*
X025936Y030806D01*
X025932Y030823D01*
X025930Y030840D01*
X025930Y031440D01*
X025932Y031457D01*
X025936Y031474D01*
X025943Y031490D01*
X025953Y031504D01*
X025966Y031517D01*
X025980Y031527D01*
X025996Y031534D01*
X026013Y031538D01*
X026030Y031540D01*
X027130Y031540D01*
X027147Y031538D01*
X027164Y031534D01*
X027180Y031527D01*
X027194Y031517D01*
X027207Y031504D01*
X027217Y031490D01*
X027224Y031474D01*
X027228Y031457D01*
X027230Y031440D01*
X027130Y031740D02*
X026030Y031740D01*
X026013Y031742D01*
X025996Y031746D01*
X025980Y031753D01*
X025966Y031763D01*
X025953Y031776D01*
X025943Y031790D01*
X025936Y031806D01*
X025932Y031823D01*
X025930Y031840D01*
X025930Y032440D01*
X025932Y032457D01*
X025936Y032474D01*
X025943Y032490D01*
X025953Y032504D01*
X025966Y032517D01*
X025980Y032527D01*
X025996Y032534D01*
X026013Y032538D01*
X026030Y032540D01*
X027130Y032540D01*
X027147Y032538D01*
X027164Y032534D01*
X027180Y032527D01*
X027194Y032517D01*
X027207Y032504D01*
X027217Y032490D01*
X027224Y032474D01*
X027228Y032457D01*
X027230Y032440D01*
X027230Y031840D01*
X027228Y031823D01*
X027224Y031806D01*
X027217Y031790D01*
X027207Y031776D01*
X027194Y031763D01*
X027180Y031753D01*
X027164Y031746D01*
X027147Y031742D01*
X027130Y031740D01*
X027130Y032740D02*
X026030Y032740D01*
X026013Y032742D01*
X025996Y032746D01*
X025980Y032753D01*
X025966Y032763D01*
X025953Y032776D01*
X025943Y032790D01*
X025936Y032806D01*
X025932Y032823D01*
X025930Y032840D01*
X025930Y033440D01*
X025932Y033457D01*
X025936Y033474D01*
X025943Y033490D01*
X025953Y033504D01*
X025966Y033517D01*
X025980Y033527D01*
X025996Y033534D01*
X026013Y033538D01*
X026030Y033540D01*
X027130Y033540D01*
X027147Y033538D01*
X027164Y033534D01*
X027180Y033527D01*
X027194Y033517D01*
X027207Y033504D01*
X027217Y033490D01*
X027224Y033474D01*
X027228Y033457D01*
X027230Y033440D01*
X027230Y032840D01*
X027228Y032823D01*
X027224Y032806D01*
X027217Y032790D01*
X027207Y032776D01*
X027194Y032763D01*
X027180Y032753D01*
X027164Y032746D01*
X027147Y032742D01*
X027130Y032740D01*
X021230Y032840D02*
X021230Y033440D01*
X021228Y033457D01*
X021224Y033474D01*
X021217Y033490D01*
X021207Y033504D01*
X021194Y033517D01*
X021180Y033527D01*
X021164Y033534D01*
X021147Y033538D01*
X021130Y033540D01*
X020030Y033540D01*
X020013Y033538D01*
X019996Y033534D01*
X019980Y033527D01*
X019966Y033517D01*
X019953Y033504D01*
X019943Y033490D01*
X019936Y033474D01*
X019932Y033457D01*
X019930Y033440D01*
X019930Y032840D01*
X019932Y032823D01*
X019936Y032806D01*
X019943Y032790D01*
X019953Y032776D01*
X019966Y032763D01*
X019980Y032753D01*
X019996Y032746D01*
X020013Y032742D01*
X020030Y032740D01*
X021130Y032740D01*
X021147Y032742D01*
X021164Y032746D01*
X021180Y032753D01*
X021194Y032763D01*
X021207Y032776D01*
X021217Y032790D01*
X021224Y032806D01*
X021228Y032823D01*
X021230Y032840D01*
X021130Y032540D02*
X020030Y032540D01*
X020013Y032538D01*
X019996Y032534D01*
X019980Y032527D01*
X019966Y032517D01*
X019953Y032504D01*
X019943Y032490D01*
X019936Y032474D01*
X019932Y032457D01*
X019930Y032440D01*
X019930Y031840D01*
X019932Y031823D01*
X019936Y031806D01*
X019943Y031790D01*
X019953Y031776D01*
X019966Y031763D01*
X019980Y031753D01*
X019996Y031746D01*
X020013Y031742D01*
X020030Y031740D01*
X021130Y031740D01*
X021147Y031742D01*
X021164Y031746D01*
X021180Y031753D01*
X021194Y031763D01*
X021207Y031776D01*
X021217Y031790D01*
X021224Y031806D01*
X021228Y031823D01*
X021230Y031840D01*
X021230Y032440D01*
X021228Y032457D01*
X021224Y032474D01*
X021217Y032490D01*
X021207Y032504D01*
X021194Y032517D01*
X021180Y032527D01*
X021164Y032534D01*
X021147Y032538D01*
X021130Y032540D01*
X021130Y031540D02*
X020030Y031540D01*
X020013Y031538D01*
X019996Y031534D01*
X019980Y031527D01*
X019966Y031517D01*
X019953Y031504D01*
X019943Y031490D01*
X019936Y031474D01*
X019932Y031457D01*
X019930Y031440D01*
X019930Y030840D01*
X019932Y030823D01*
X019936Y030806D01*
X019943Y030790D01*
X019953Y030776D01*
X019966Y030763D01*
X019980Y030753D01*
X019996Y030746D01*
X020013Y030742D01*
X020030Y030740D01*
X021130Y030740D01*
X021147Y030742D01*
X021164Y030746D01*
X021180Y030753D01*
X021194Y030763D01*
X021207Y030776D01*
X021217Y030790D01*
X021224Y030806D01*
X021228Y030823D01*
X021230Y030840D01*
X021230Y031440D01*
X021228Y031457D01*
X021224Y031474D01*
X021217Y031490D01*
X021207Y031504D01*
X021194Y031517D01*
X021180Y031527D01*
X021164Y031534D01*
X021147Y031538D01*
X021130Y031540D01*
X015230Y031440D02*
X015230Y030840D01*
X015228Y030823D01*
X015224Y030806D01*
X015217Y030790D01*
X015207Y030776D01*
X015194Y030763D01*
X015180Y030753D01*
X015164Y030746D01*
X015147Y030742D01*
X015130Y030740D01*
X014030Y030740D01*
X014013Y030742D01*
X013996Y030746D01*
X013980Y030753D01*
X013966Y030763D01*
X013953Y030776D01*
X013943Y030790D01*
X013936Y030806D01*
X013932Y030823D01*
X013930Y030840D01*
X013930Y031440D01*
X013932Y031457D01*
X013936Y031474D01*
X013943Y031490D01*
X013953Y031504D01*
X013966Y031517D01*
X013980Y031527D01*
X013996Y031534D01*
X014013Y031538D01*
X014030Y031540D01*
X015130Y031540D01*
X015147Y031538D01*
X015164Y031534D01*
X015180Y031527D01*
X015194Y031517D01*
X015207Y031504D01*
X015217Y031490D01*
X015224Y031474D01*
X015228Y031457D01*
X015230Y031440D01*
X015130Y031740D02*
X014030Y031740D01*
X014013Y031742D01*
X013996Y031746D01*
X013980Y031753D01*
X013966Y031763D01*
X013953Y031776D01*
X013943Y031790D01*
X013936Y031806D01*
X013932Y031823D01*
X013930Y031840D01*
X013930Y032440D01*
X013932Y032457D01*
X013936Y032474D01*
X013943Y032490D01*
X013953Y032504D01*
X013966Y032517D01*
X013980Y032527D01*
X013996Y032534D01*
X014013Y032538D01*
X014030Y032540D01*
X015130Y032540D01*
X015147Y032538D01*
X015164Y032534D01*
X015180Y032527D01*
X015194Y032517D01*
X015207Y032504D01*
X015217Y032490D01*
X015224Y032474D01*
X015228Y032457D01*
X015230Y032440D01*
X015230Y031840D01*
X015228Y031823D01*
X015224Y031806D01*
X015217Y031790D01*
X015207Y031776D01*
X015194Y031763D01*
X015180Y031753D01*
X015164Y031746D01*
X015147Y031742D01*
X015130Y031740D01*
X015130Y032740D02*
X014030Y032740D01*
X014013Y032742D01*
X013996Y032746D01*
X013980Y032753D01*
X013966Y032763D01*
X013953Y032776D01*
X013943Y032790D01*
X013936Y032806D01*
X013932Y032823D01*
X013930Y032840D01*
X013930Y033440D01*
X013932Y033457D01*
X013936Y033474D01*
X013943Y033490D01*
X013953Y033504D01*
X013966Y033517D01*
X013980Y033527D01*
X013996Y033534D01*
X014013Y033538D01*
X014030Y033540D01*
X015130Y033540D01*
X015147Y033538D01*
X015164Y033534D01*
X015180Y033527D01*
X015194Y033517D01*
X015207Y033504D01*
X015217Y033490D01*
X015224Y033474D01*
X015228Y033457D01*
X015230Y033440D01*
X015230Y032840D01*
X015228Y032823D01*
X015224Y032806D01*
X015217Y032790D01*
X015207Y032776D01*
X015194Y032763D01*
X015180Y032753D01*
X015164Y032746D01*
X015147Y032742D01*
X015130Y032740D01*
X009230Y032840D02*
X009230Y033440D01*
X009228Y033457D01*
X009224Y033474D01*
X009217Y033490D01*
X009207Y033504D01*
X009194Y033517D01*
X009180Y033527D01*
X009164Y033534D01*
X009147Y033538D01*
X009130Y033540D01*
X008030Y033540D01*
X008013Y033538D01*
X007996Y033534D01*
X007980Y033527D01*
X007966Y033517D01*
X007953Y033504D01*
X007943Y033490D01*
X007936Y033474D01*
X007932Y033457D01*
X007930Y033440D01*
X007930Y032840D01*
X007932Y032823D01*
X007936Y032806D01*
X007943Y032790D01*
X007953Y032776D01*
X007966Y032763D01*
X007980Y032753D01*
X007996Y032746D01*
X008013Y032742D01*
X008030Y032740D01*
X009130Y032740D01*
X009147Y032742D01*
X009164Y032746D01*
X009180Y032753D01*
X009194Y032763D01*
X009207Y032776D01*
X009217Y032790D01*
X009224Y032806D01*
X009228Y032823D01*
X009230Y032840D01*
X009130Y032540D02*
X008030Y032540D01*
X008013Y032538D01*
X007996Y032534D01*
X007980Y032527D01*
X007966Y032517D01*
X007953Y032504D01*
X007943Y032490D01*
X007936Y032474D01*
X007932Y032457D01*
X007930Y032440D01*
X007930Y031840D01*
X007932Y031823D01*
X007936Y031806D01*
X007943Y031790D01*
X007953Y031776D01*
X007966Y031763D01*
X007980Y031753D01*
X007996Y031746D01*
X008013Y031742D01*
X008030Y031740D01*
X009130Y031740D01*
X009147Y031742D01*
X009164Y031746D01*
X009180Y031753D01*
X009194Y031763D01*
X009207Y031776D01*
X009217Y031790D01*
X009224Y031806D01*
X009228Y031823D01*
X009230Y031840D01*
X009230Y032440D01*
X009228Y032457D01*
X009224Y032474D01*
X009217Y032490D01*
X009207Y032504D01*
X009194Y032517D01*
X009180Y032527D01*
X009164Y032534D01*
X009147Y032538D01*
X009130Y032540D01*
X009130Y031540D02*
X008030Y031540D01*
X008013Y031538D01*
X007996Y031534D01*
X007980Y031527D01*
X007966Y031517D01*
X007953Y031504D01*
X007943Y031490D01*
X007936Y031474D01*
X007932Y031457D01*
X007930Y031440D01*
X007930Y030840D01*
X007932Y030823D01*
X007936Y030806D01*
X007943Y030790D01*
X007953Y030776D01*
X007966Y030763D01*
X007980Y030753D01*
X007996Y030746D01*
X008013Y030742D01*
X008030Y030740D01*
X009130Y030740D01*
X009147Y030742D01*
X009164Y030746D01*
X009180Y030753D01*
X009194Y030763D01*
X009207Y030776D01*
X009217Y030790D01*
X009224Y030806D01*
X009228Y030823D01*
X009230Y030840D01*
X009230Y031440D01*
X009228Y031457D01*
X009224Y031474D01*
X009217Y031490D01*
X009207Y031504D01*
X009194Y031517D01*
X009180Y031527D01*
X009164Y031534D01*
X009147Y031538D01*
X009130Y031540D01*
D15*
X011336Y019969D02*
X011336Y019538D01*
X011336Y019682D02*
X011121Y019538D01*
X010953Y019610D02*
X010881Y019538D01*
X010666Y019538D01*
X010666Y019466D02*
X010737Y019395D01*
X010809Y019395D01*
X010666Y019466D02*
X010666Y019825D01*
X010953Y019825D02*
X010953Y019610D01*
X011121Y019825D02*
X011336Y019682D01*
X011510Y019610D02*
X011581Y019682D01*
X011725Y019682D01*
X011797Y019753D01*
X011725Y019825D01*
X011510Y019825D01*
X011510Y019610D02*
X011581Y019538D01*
X011797Y019538D01*
X012114Y019538D02*
X011970Y019825D01*
X012257Y019825D02*
X012114Y019538D01*
X012430Y019610D02*
X012430Y019753D01*
X012502Y019825D01*
X012646Y019825D01*
X012717Y019753D01*
X012717Y019610D01*
X012646Y019538D01*
X012502Y019538D01*
X012430Y019610D01*
X012891Y019538D02*
X013106Y019538D01*
X013178Y019610D01*
X013178Y019753D01*
X013106Y019825D01*
X012891Y019825D01*
X012891Y019969D02*
X012891Y019538D01*
X013351Y019610D02*
X013351Y019753D01*
X013423Y019825D01*
X013566Y019825D01*
X013638Y019753D01*
X013638Y019610D01*
X013566Y019538D01*
X013423Y019538D01*
X013351Y019610D01*
X013802Y019538D02*
X013945Y019538D01*
X013873Y019538D02*
X013873Y019969D01*
X013945Y019969D01*
X014119Y019753D02*
X014190Y019825D01*
X014334Y019825D01*
X014405Y019753D01*
X014405Y019610D01*
X014334Y019538D01*
X014190Y019538D01*
X014119Y019610D01*
X014119Y019753D01*
X014579Y019753D02*
X014579Y019538D01*
X014579Y019753D02*
X014651Y019825D01*
X014794Y019825D01*
X014866Y019753D01*
X014866Y019538D02*
X014866Y019969D01*
X015039Y019969D02*
X015326Y019682D01*
X015255Y019753D02*
X015039Y019538D01*
X015326Y019538D02*
X015326Y019969D01*
X015960Y019825D02*
X015960Y019466D01*
X016032Y019395D01*
X016104Y019395D01*
X016175Y019538D02*
X015960Y019538D01*
X016175Y019538D02*
X016247Y019610D01*
X016247Y019825D01*
X016421Y019753D02*
X016421Y019538D01*
X016636Y019538D01*
X016707Y019610D01*
X016636Y019682D01*
X016421Y019682D01*
X016421Y019753D02*
X016492Y019825D01*
X016636Y019825D01*
X016881Y019753D02*
X016953Y019682D01*
X017168Y019682D01*
X017024Y019682D02*
X016881Y019538D01*
X016881Y019753D02*
X016881Y019897D01*
X016953Y019969D01*
X017168Y019969D01*
X017168Y019538D01*
X017802Y019538D02*
X018017Y019538D01*
X018089Y019610D01*
X018089Y019825D01*
X018262Y019753D02*
X018334Y019825D01*
X018549Y019825D01*
X018549Y019969D02*
X018549Y019538D01*
X018334Y019538D01*
X018262Y019610D01*
X018262Y019753D01*
X017802Y019825D02*
X017802Y019466D01*
X017873Y019395D01*
X017945Y019395D01*
X019183Y019538D02*
X019398Y019538D01*
X019470Y019610D01*
X019470Y019753D01*
X019398Y019825D01*
X019183Y019825D01*
X019183Y019969D02*
X019183Y019538D01*
X019643Y019682D02*
X019930Y019682D01*
X019930Y019753D02*
X019858Y019825D01*
X019715Y019825D01*
X019643Y019753D01*
X019643Y019682D01*
X019715Y019538D02*
X019858Y019538D01*
X019930Y019610D01*
X019930Y019753D01*
X020104Y019753D02*
X020104Y019538D01*
X020104Y019753D02*
X020175Y019825D01*
X020391Y019825D01*
X020391Y019538D01*
X020564Y019538D02*
X020779Y019538D01*
X020851Y019610D01*
X020851Y019753D01*
X020779Y019825D01*
X020564Y019825D01*
X020564Y019466D01*
X020636Y019395D01*
X020708Y019395D01*
X021014Y019538D02*
X021158Y019538D01*
X021086Y019538D02*
X021086Y019825D01*
X021158Y019825D01*
X021086Y019969D02*
X021086Y020040D01*
X021331Y019825D02*
X021547Y019825D01*
X021618Y019753D01*
X021547Y019682D01*
X021403Y019682D01*
X021331Y019610D01*
X021403Y019538D01*
X021618Y019538D01*
X021792Y019682D02*
X022079Y019682D01*
X022079Y019753D02*
X022007Y019825D01*
X021864Y019825D01*
X021792Y019753D01*
X021792Y019682D01*
X021864Y019538D02*
X022007Y019538D01*
X022079Y019610D01*
X022079Y019753D01*
X022252Y019610D02*
X022324Y019538D01*
X022539Y019538D01*
X022539Y019969D01*
X022324Y019969D01*
X022252Y019897D01*
X022252Y019610D01*
X024747Y025701D02*
X025033Y025701D01*
X024890Y025701D02*
X024890Y026131D01*
X025033Y025988D01*
X025207Y026060D02*
X025207Y025916D01*
X025279Y025845D01*
X025494Y025845D01*
X025494Y025701D02*
X025494Y026131D01*
X025279Y026131D01*
X025207Y026060D01*
X025667Y026131D02*
X025954Y025701D01*
X026128Y025701D02*
X026415Y025701D01*
X026415Y026131D01*
X026128Y026131D01*
X025954Y026131D02*
X025667Y025701D01*
X026271Y025916D02*
X026415Y025916D01*
X032747Y025988D02*
X032747Y026060D01*
X032818Y026131D01*
X032962Y026131D01*
X033033Y026060D01*
X033207Y026060D02*
X033207Y025916D01*
X033279Y025845D01*
X033494Y025845D01*
X033494Y025701D02*
X033494Y026131D01*
X033279Y026131D01*
X033207Y026060D01*
X033033Y025701D02*
X032747Y025988D01*
X032747Y025701D02*
X033033Y025701D01*
X033667Y025701D02*
X033954Y026131D01*
X034128Y026131D02*
X034415Y026131D01*
X034415Y025701D01*
X034128Y025701D01*
X033954Y025701D02*
X033667Y026131D01*
X034271Y025916D02*
X034415Y025916D01*
X041256Y026985D02*
X041587Y026985D01*
X041587Y027150D01*
X041532Y027205D01*
X041421Y027205D01*
X041366Y027150D01*
X041366Y026985D01*
X041256Y027354D02*
X041256Y027574D01*
X041256Y027722D02*
X041477Y027722D01*
X041587Y027832D01*
X041477Y027942D01*
X041256Y027942D01*
X041421Y027942D02*
X041421Y027722D01*
X041532Y028090D02*
X041421Y028200D01*
X041256Y028200D01*
X041421Y028200D02*
X041532Y028310D01*
X041587Y028310D01*
X041587Y028090D02*
X041532Y028090D01*
X041587Y027354D02*
X041256Y027354D01*
X039271Y015159D02*
X039199Y015159D01*
X039127Y015087D01*
X039127Y014872D01*
X039056Y014699D02*
X039127Y014627D01*
X039127Y014483D01*
X039199Y014412D01*
X039271Y014412D01*
X039343Y014483D01*
X039343Y014627D01*
X039271Y014699D01*
X039343Y014872D02*
X039343Y015087D01*
X039271Y015159D01*
X039127Y015087D02*
X039056Y015159D01*
X038984Y015159D01*
X038912Y015087D01*
X038912Y014872D01*
X039343Y014872D01*
X039056Y014699D02*
X038984Y014699D01*
X038912Y014627D01*
X038912Y014483D01*
X038984Y014412D01*
X038984Y014238D02*
X039343Y014238D01*
X039343Y013951D02*
X038984Y013951D01*
X038912Y014023D01*
X038912Y014166D01*
X038984Y014238D01*
X036948Y009332D02*
X036661Y009332D01*
X036589Y009260D01*
X036589Y009045D01*
X037020Y009045D01*
X037020Y009260D01*
X036948Y009332D01*
X036948Y008872D02*
X037020Y008800D01*
X037020Y008657D01*
X036948Y008585D01*
X036876Y008585D01*
X036805Y008657D01*
X036805Y008800D01*
X036733Y008872D01*
X036661Y008872D01*
X036589Y008800D01*
X036589Y008657D01*
X036661Y008585D01*
X036589Y008411D02*
X036876Y008411D01*
X036876Y008125D02*
X036661Y008125D01*
X036589Y008196D01*
X036589Y008411D01*
X041263Y005223D02*
X041593Y005223D01*
X041593Y005113D02*
X041593Y005333D01*
X041593Y004965D02*
X041593Y004745D01*
X041263Y004745D01*
X041263Y004965D01*
X041428Y004855D02*
X041428Y004745D01*
X041373Y004596D02*
X041318Y004596D01*
X041263Y004541D01*
X041263Y004431D01*
X041318Y004376D01*
X041428Y004431D02*
X041428Y004541D01*
X041373Y004596D01*
X041538Y004596D02*
X041593Y004541D01*
X041593Y004431D01*
X041538Y004376D01*
X041483Y004376D01*
X041428Y004431D01*
X041593Y004228D02*
X041593Y004008D01*
X041263Y004008D01*
X041263Y004228D01*
X041428Y004118D02*
X041428Y004008D01*
X041428Y003860D02*
X041373Y003805D01*
X041373Y003640D01*
X041373Y003750D02*
X041263Y003860D01*
X041428Y003860D02*
X041538Y003860D01*
X041593Y003805D01*
X041593Y003640D01*
X041263Y003640D01*
X035509Y001152D02*
X035223Y000722D01*
X035049Y000937D02*
X034762Y000937D01*
X034589Y000722D02*
X034589Y001152D01*
X034445Y001009D01*
X034302Y001152D01*
X034302Y000722D01*
X034128Y000722D02*
X033985Y000722D01*
X034057Y000722D02*
X034057Y001152D01*
X034128Y001152D02*
X033985Y001152D01*
X033821Y001152D02*
X033534Y000722D01*
X033534Y001152D01*
X033821Y001152D02*
X033821Y000722D01*
X032629Y000722D02*
X032342Y001152D01*
X032169Y000937D02*
X031882Y000937D01*
X031708Y001152D02*
X031565Y001009D01*
X031422Y001152D01*
X031422Y000722D01*
X031248Y000722D02*
X031248Y001009D01*
X031105Y001152D01*
X030961Y001009D01*
X030961Y000722D01*
X030788Y000722D02*
X030501Y001152D01*
X030788Y001152D02*
X030501Y000722D01*
X030961Y000937D02*
X031248Y000937D01*
X031708Y000722D02*
X031708Y001152D01*
X032342Y000722D02*
X032629Y001152D01*
X035223Y001152D02*
X035509Y000722D01*
X029443Y001080D02*
X029299Y000937D01*
X029299Y000722D01*
X029299Y000937D02*
X029156Y001080D01*
X029156Y001152D01*
X028982Y000937D02*
X028695Y000937D01*
X028522Y001152D02*
X028378Y001009D01*
X028235Y001152D01*
X028235Y000722D01*
X028061Y000722D02*
X027918Y000722D01*
X027990Y000722D02*
X027990Y001152D01*
X028061Y001152D02*
X027918Y001152D01*
X027755Y001152D02*
X027468Y000722D01*
X027468Y001152D01*
X027755Y001152D02*
X027755Y000722D01*
X028522Y000722D02*
X028522Y001152D01*
X029443Y001152D02*
X029443Y001080D01*
X026494Y001080D02*
X026350Y000937D01*
X026350Y000722D01*
X026350Y000937D02*
X026207Y001080D01*
X026207Y001152D01*
X026033Y000937D02*
X025746Y000937D01*
X025573Y000722D02*
X025573Y001152D01*
X025429Y001009D01*
X025286Y001152D01*
X025286Y000722D01*
X025112Y000722D02*
X025112Y001009D01*
X024969Y001152D01*
X024826Y001009D01*
X024826Y000722D01*
X024652Y000722D02*
X024365Y001152D01*
X024652Y001152D02*
X024365Y000722D01*
X024826Y000937D02*
X025112Y000937D01*
X026494Y001080D02*
X026494Y001152D01*
X023285Y001183D02*
X022998Y001183D01*
X022998Y001112D01*
X023285Y000825D01*
X023285Y000753D01*
X022998Y000753D01*
X022824Y000968D02*
X022537Y000968D01*
X022364Y000753D02*
X022364Y001183D01*
X022220Y001040D01*
X022077Y001183D01*
X022077Y000753D01*
X021903Y000753D02*
X021760Y000753D01*
X021832Y000753D02*
X021832Y001183D01*
X021903Y001183D02*
X021760Y001183D01*
X021596Y001183D02*
X021310Y000753D01*
X021310Y001183D01*
X021596Y001183D02*
X021596Y000753D01*
X020264Y000722D02*
X019977Y000722D01*
X019804Y000937D02*
X019517Y000937D01*
X019344Y001152D02*
X019200Y001009D01*
X019057Y001152D01*
X019057Y000722D01*
X018883Y000722D02*
X018883Y001009D01*
X018740Y001152D01*
X018596Y001009D01*
X018596Y000722D01*
X018423Y000722D02*
X018136Y001152D01*
X018423Y001152D02*
X018136Y000722D01*
X018596Y000937D02*
X018883Y000937D01*
X019344Y000722D02*
X019344Y001152D01*
X019977Y001152D02*
X019977Y001080D01*
X020264Y000793D01*
X020264Y000722D01*
X020264Y001152D02*
X019977Y001152D01*
D16*
X017493Y001153D02*
X017259Y001153D01*
X017376Y001269D02*
X017376Y001036D01*
X016743Y001028D02*
X016626Y001028D01*
X016743Y001203D02*
X016509Y001203D01*
X016374Y001203D02*
X016374Y000853D01*
X016141Y000853D01*
X016257Y001028D02*
X016374Y001028D01*
X016374Y001203D02*
X016141Y001203D01*
X016006Y001203D02*
X015772Y001203D01*
X015889Y001203D02*
X015889Y000853D01*
X015638Y001028D02*
X015404Y001028D01*
X015462Y001203D02*
X015638Y001028D01*
X015462Y000853D02*
X015462Y001203D01*
X015243Y001153D02*
X015009Y001153D01*
X014493Y001153D02*
X014259Y001153D01*
X013743Y001203D02*
X013509Y001203D01*
X013374Y001203D02*
X013374Y000853D01*
X013141Y000853D01*
X013257Y001028D02*
X013374Y001028D01*
X013374Y001203D02*
X013141Y001203D01*
X013006Y001203D02*
X012772Y001203D01*
X012889Y001203D02*
X012889Y000853D01*
X012638Y000911D02*
X012579Y000853D01*
X012462Y000853D01*
X012404Y000911D01*
X012404Y000969D01*
X012462Y001028D01*
X012521Y001028D01*
X012462Y001028D02*
X012404Y001086D01*
X012404Y001144D01*
X012462Y001203D01*
X012579Y001203D01*
X012638Y001144D01*
X012243Y001153D02*
X012009Y001153D01*
X012126Y001269D02*
X012126Y001036D01*
X011493Y001153D02*
X011259Y001153D01*
X010743Y001203D02*
X010509Y001203D01*
X010374Y001203D02*
X010374Y000853D01*
X010141Y000853D01*
X010257Y001028D02*
X010374Y001028D01*
X010374Y001203D02*
X010141Y001203D01*
X010006Y001203D02*
X009772Y001203D01*
X009889Y001203D02*
X009889Y000853D01*
X009638Y000853D02*
X009404Y001086D01*
X009404Y001144D01*
X009462Y001203D01*
X009579Y001203D01*
X009638Y001144D01*
X009638Y000853D02*
X009404Y000853D01*
X009126Y001036D02*
X009126Y001269D01*
X009243Y001153D02*
X009009Y001153D01*
X008493Y001153D02*
X008259Y001153D01*
X007743Y001203D02*
X007509Y001203D01*
X007374Y001203D02*
X007374Y000853D01*
X007141Y000853D01*
X007257Y001028D02*
X007374Y001028D01*
X007374Y001203D02*
X007141Y001203D01*
X007006Y001203D02*
X006772Y001203D01*
X006889Y001203D02*
X006889Y000853D01*
X006638Y000853D02*
X006404Y000853D01*
X006521Y000853D02*
X006521Y001203D01*
X006638Y001086D01*
X006243Y001153D02*
X006009Y001153D01*
X006126Y001269D02*
X006126Y001036D01*
X007626Y001028D02*
X007743Y001028D01*
X007743Y000853D02*
X007743Y001203D01*
X010626Y001028D02*
X010743Y001028D01*
X010743Y000853D02*
X010743Y001203D01*
X013626Y001028D02*
X013743Y001028D01*
X013743Y000853D02*
X013743Y001203D01*
X016743Y001203D02*
X016743Y000853D01*
D17*
X018304Y021198D02*
X018878Y021772D01*
X019348Y021772D02*
X019348Y021198D01*
X019205Y021198D02*
X019492Y021198D01*
X019839Y021198D02*
X019839Y022059D01*
X020126Y021772D01*
X020413Y022059D01*
X020413Y021198D01*
X020759Y021485D02*
X020759Y021629D01*
X020903Y021772D01*
X021190Y021772D01*
X021333Y021629D01*
X021333Y021342D01*
X021190Y021198D01*
X020903Y021198D01*
X020759Y021485D02*
X021333Y021485D01*
X021680Y021629D02*
X021824Y021485D01*
X022254Y021485D01*
X022254Y021198D02*
X022254Y022059D01*
X021824Y022059D01*
X021680Y021915D01*
X021680Y021629D01*
X021967Y021485D02*
X021680Y021198D01*
X021824Y022698D02*
X021680Y022842D01*
X021824Y022698D02*
X022111Y022698D01*
X022254Y022842D01*
X022254Y023415D01*
X022111Y023559D01*
X021824Y023559D01*
X021680Y023415D01*
X021333Y023129D02*
X021333Y022842D01*
X021190Y022698D01*
X020903Y022698D01*
X020759Y022842D01*
X020759Y023129D01*
X020903Y023272D01*
X021190Y023272D01*
X021333Y023129D01*
X020413Y023129D02*
X020269Y023272D01*
X019982Y023272D01*
X019839Y023129D01*
X019839Y022698D01*
X019492Y022842D02*
X019492Y023129D01*
X019348Y023272D01*
X019061Y023272D01*
X018918Y023129D01*
X018918Y022985D01*
X019492Y022985D01*
X019492Y022842D02*
X019348Y022698D01*
X019061Y022698D01*
X018571Y022698D02*
X018141Y022698D01*
X017997Y022842D01*
X018141Y022985D01*
X018427Y022985D01*
X018571Y023129D01*
X018427Y023272D01*
X017997Y023272D01*
X017650Y023272D02*
X017507Y023272D01*
X017507Y022698D01*
X017650Y022698D02*
X017363Y022698D01*
X017036Y022842D02*
X016893Y022698D01*
X016606Y022698D01*
X016462Y022842D01*
X016462Y023129D01*
X016606Y023272D01*
X016893Y023272D01*
X017036Y023129D01*
X017036Y022842D01*
X017507Y023559D02*
X017507Y023702D01*
X016116Y023272D02*
X016116Y022698D01*
X015542Y022698D02*
X015542Y023129D01*
X015685Y023272D01*
X016116Y023272D01*
X015195Y023415D02*
X015051Y023559D01*
X014764Y023559D01*
X014621Y023415D01*
X014621Y023272D01*
X014764Y023129D01*
X014621Y022985D01*
X014621Y022842D01*
X014764Y022698D01*
X015051Y022698D01*
X015195Y022842D01*
X014908Y023129D02*
X014764Y023129D01*
X014274Y023559D02*
X014274Y022698D01*
X013844Y022698D01*
X013700Y022842D01*
X013700Y023415D01*
X013844Y023559D01*
X014274Y023559D01*
X018304Y021772D02*
X018878Y021198D01*
X019348Y021772D02*
X019492Y021772D01*
X019348Y022059D02*
X019348Y022202D01*
X020413Y022698D02*
X020413Y023559D01*
D18*
X019768Y031363D02*
X019768Y031643D01*
X019674Y031550D01*
X019581Y031643D01*
X019581Y031363D01*
X019473Y031410D02*
X019426Y031363D01*
X019333Y031363D01*
X019286Y031410D01*
X019286Y031457D01*
X019333Y031503D01*
X019426Y031503D01*
X019473Y031550D01*
X019473Y031597D01*
X019426Y031643D01*
X019333Y031643D01*
X019286Y031597D01*
X019178Y031550D02*
X019085Y031643D01*
X019085Y031363D01*
X019178Y031363D02*
X018992Y031363D01*
X018992Y032113D02*
X019178Y032113D01*
X018992Y032300D01*
X018992Y032347D01*
X019038Y032393D01*
X019132Y032393D01*
X019178Y032347D01*
X019286Y032347D02*
X019333Y032393D01*
X019426Y032393D01*
X019473Y032347D01*
X019473Y032300D01*
X019426Y032253D01*
X019333Y032253D01*
X019286Y032207D01*
X019286Y032160D01*
X019333Y032113D01*
X019426Y032113D01*
X019473Y032160D01*
X019581Y032113D02*
X019581Y032393D01*
X019674Y032300D01*
X019768Y032393D01*
X019768Y032113D01*
X019768Y033113D02*
X019768Y033393D01*
X019674Y033300D01*
X019581Y033393D01*
X019581Y033113D01*
X019473Y033160D02*
X019426Y033113D01*
X019333Y033113D01*
X019286Y033160D01*
X019286Y033207D01*
X019333Y033253D01*
X019426Y033253D01*
X019473Y033300D01*
X019473Y033347D01*
X019426Y033393D01*
X019333Y033393D01*
X019286Y033347D01*
X019178Y033347D02*
X019132Y033393D01*
X019038Y033393D01*
X018992Y033347D01*
X018992Y033300D01*
X019038Y033253D01*
X018992Y033207D01*
X018992Y033160D01*
X019038Y033113D01*
X019132Y033113D01*
X019178Y033160D01*
X019085Y033253D02*
X019038Y033253D01*
X013768Y033113D02*
X013768Y033393D01*
X013674Y033300D01*
X013581Y033393D01*
X013581Y033113D01*
X013473Y033160D02*
X013426Y033113D01*
X013333Y033113D01*
X013286Y033160D01*
X013286Y033207D01*
X013333Y033253D01*
X013426Y033253D01*
X013473Y033300D01*
X013473Y033347D01*
X013426Y033393D01*
X013333Y033393D01*
X013286Y033347D01*
X013178Y033347D02*
X013132Y033393D01*
X013038Y033393D01*
X012992Y033347D01*
X012992Y033300D01*
X013038Y033253D01*
X012992Y033207D01*
X012992Y033160D01*
X013038Y033113D01*
X013132Y033113D01*
X013178Y033160D01*
X013085Y033253D02*
X013038Y033253D01*
X013038Y032393D02*
X013132Y032393D01*
X013178Y032347D01*
X013286Y032347D02*
X013333Y032393D01*
X013426Y032393D01*
X013473Y032347D01*
X013473Y032300D01*
X013426Y032253D01*
X013333Y032253D01*
X013286Y032207D01*
X013286Y032160D01*
X013333Y032113D01*
X013426Y032113D01*
X013473Y032160D01*
X013581Y032113D02*
X013581Y032393D01*
X013674Y032300D01*
X013768Y032393D01*
X013768Y032113D01*
X013830Y031768D02*
X013737Y031675D01*
X013643Y031768D01*
X013643Y031488D01*
X013536Y031535D02*
X013489Y031488D01*
X013395Y031488D01*
X013349Y031535D01*
X013349Y031582D01*
X013395Y031628D01*
X013489Y031628D01*
X013536Y031675D01*
X013536Y031722D01*
X013489Y031768D01*
X013395Y031768D01*
X013349Y031722D01*
X013241Y031675D02*
X013147Y031768D01*
X013147Y031488D01*
X013054Y031488D02*
X013241Y031488D01*
X013178Y032113D02*
X012992Y032300D01*
X012992Y032347D01*
X013038Y032393D01*
X012992Y032113D02*
X013178Y032113D01*
X013830Y031768D02*
X013830Y031488D01*
X007768Y031363D02*
X007768Y031643D01*
X007674Y031550D01*
X007581Y031643D01*
X007581Y031363D01*
X007473Y031410D02*
X007426Y031363D01*
X007333Y031363D01*
X007286Y031410D01*
X007286Y031457D01*
X007333Y031503D01*
X007426Y031503D01*
X007473Y031550D01*
X007473Y031597D01*
X007426Y031643D01*
X007333Y031643D01*
X007286Y031597D01*
X007178Y031550D02*
X007085Y031643D01*
X007085Y031363D01*
X007178Y031363D02*
X006992Y031363D01*
X006992Y032113D02*
X007178Y032113D01*
X006992Y032300D01*
X006992Y032347D01*
X007038Y032393D01*
X007132Y032393D01*
X007178Y032347D01*
X007286Y032347D02*
X007333Y032393D01*
X007426Y032393D01*
X007473Y032347D01*
X007473Y032300D01*
X007426Y032253D01*
X007333Y032253D01*
X007286Y032207D01*
X007286Y032160D01*
X007333Y032113D01*
X007426Y032113D01*
X007473Y032160D01*
X007581Y032113D02*
X007581Y032393D01*
X007674Y032300D01*
X007768Y032393D01*
X007768Y032113D01*
X007768Y033113D02*
X007768Y033393D01*
X007674Y033300D01*
X007581Y033393D01*
X007581Y033113D01*
X007473Y033160D02*
X007426Y033113D01*
X007333Y033113D01*
X007286Y033160D01*
X007286Y033207D01*
X007333Y033253D01*
X007426Y033253D01*
X007473Y033300D01*
X007473Y033347D01*
X007426Y033393D01*
X007333Y033393D01*
X007286Y033347D01*
X007178Y033347D02*
X007132Y033393D01*
X007038Y033393D01*
X006992Y033347D01*
X006992Y033300D01*
X007038Y033253D01*
X006992Y033207D01*
X006992Y033160D01*
X007038Y033113D01*
X007132Y033113D01*
X007178Y033160D01*
X007085Y033253D02*
X007038Y033253D01*
X003685Y029288D02*
X003225Y029288D01*
X003685Y028981D01*
X003225Y028981D01*
X003225Y028827D02*
X003225Y028674D01*
X003225Y028751D02*
X003685Y028751D01*
X003685Y028827D02*
X003685Y028674D01*
X003609Y028060D02*
X003455Y028060D01*
X003378Y027983D01*
X003378Y027753D01*
X003225Y027753D02*
X003685Y027753D01*
X003685Y027983D01*
X003609Y028060D01*
X003378Y027907D02*
X003225Y028060D01*
X003225Y027600D02*
X003225Y027293D01*
X003685Y027293D01*
X003685Y027600D01*
X003455Y027446D02*
X003455Y027293D01*
X003225Y027139D02*
X003685Y027139D01*
X003685Y026832D02*
X003225Y026832D01*
X003378Y026986D01*
X003225Y027139D01*
X003302Y026679D02*
X003609Y026679D01*
X003685Y026602D01*
X003685Y026449D01*
X003609Y026372D01*
X003302Y026372D01*
X003225Y026449D01*
X003225Y026602D01*
X003302Y026679D01*
X003455Y026218D02*
X003378Y026142D01*
X003378Y025912D01*
X003225Y025912D02*
X003685Y025912D01*
X003685Y026142D01*
X003609Y026218D01*
X003455Y026218D01*
X003225Y025298D02*
X003685Y025298D01*
X003685Y024991D02*
X003225Y024991D01*
X003225Y024837D02*
X003225Y024684D01*
X003225Y024761D02*
X003685Y024761D01*
X003685Y024837D02*
X003685Y024684D01*
X003532Y024530D02*
X003685Y024377D01*
X003532Y024223D01*
X003225Y024223D01*
X003225Y024070D02*
X003685Y024070D01*
X003532Y023917D01*
X003685Y023763D01*
X003225Y023763D01*
X003455Y024223D02*
X003455Y024530D01*
X003532Y024530D02*
X003225Y024530D01*
X003685Y024991D02*
X003225Y025298D01*
X003475Y021882D02*
X003935Y021882D01*
X003935Y021575D02*
X003475Y021575D01*
X003475Y021421D02*
X003475Y021268D01*
X003475Y021344D02*
X003935Y021344D01*
X003935Y021268D02*
X003935Y021421D01*
X003935Y021575D02*
X003475Y021882D01*
X003628Y021114D02*
X003475Y020961D01*
X003628Y020807D01*
X003935Y020807D01*
X003935Y021114D02*
X003628Y021114D01*
X003475Y020193D02*
X003475Y019963D01*
X003552Y019886D01*
X003705Y019886D01*
X003782Y019963D01*
X003782Y020193D01*
X003935Y020193D02*
X003475Y020193D01*
X003628Y019733D02*
X003628Y019426D01*
X003552Y019426D02*
X003705Y019426D01*
X003782Y019503D01*
X003782Y019656D01*
X003705Y019733D01*
X003628Y019733D01*
X003475Y019656D02*
X003475Y019503D01*
X003552Y019426D01*
X003552Y019273D02*
X003475Y019196D01*
X003475Y018966D01*
X003935Y018966D01*
X003935Y019196D01*
X003859Y019273D01*
X003782Y019273D01*
X003705Y019196D01*
X003705Y018966D01*
X003705Y019196D02*
X003628Y019273D01*
X003552Y019273D01*
X024992Y031363D02*
X025178Y031363D01*
X025085Y031363D02*
X025085Y031643D01*
X025178Y031550D01*
X025286Y031597D02*
X025333Y031643D01*
X025426Y031643D01*
X025473Y031597D01*
X025473Y031550D01*
X025426Y031503D01*
X025333Y031503D01*
X025286Y031457D01*
X025286Y031410D01*
X025333Y031363D01*
X025426Y031363D01*
X025473Y031410D01*
X025581Y031363D02*
X025581Y031643D01*
X025674Y031550D01*
X025768Y031643D01*
X025768Y031363D01*
X025768Y032113D02*
X025768Y032393D01*
X025674Y032300D01*
X025581Y032393D01*
X025581Y032113D01*
X025473Y032160D02*
X025426Y032113D01*
X025333Y032113D01*
X025286Y032160D01*
X025286Y032207D01*
X025333Y032253D01*
X025426Y032253D01*
X025473Y032300D01*
X025473Y032347D01*
X025426Y032393D01*
X025333Y032393D01*
X025286Y032347D01*
X025178Y032347D02*
X025132Y032393D01*
X025038Y032393D01*
X024992Y032347D01*
X024992Y032300D01*
X025178Y032113D01*
X024992Y032113D01*
X025038Y033113D02*
X025132Y033113D01*
X025178Y033160D01*
X025286Y033160D02*
X025333Y033113D01*
X025426Y033113D01*
X025473Y033160D01*
X025426Y033253D02*
X025333Y033253D01*
X025286Y033207D01*
X025286Y033160D01*
X025426Y033253D02*
X025473Y033300D01*
X025473Y033347D01*
X025426Y033393D01*
X025333Y033393D01*
X025286Y033347D01*
X025178Y033347D02*
X025132Y033393D01*
X025038Y033393D01*
X024992Y033347D01*
X024992Y033300D01*
X025038Y033253D01*
X024992Y033207D01*
X024992Y033160D01*
X025038Y033113D01*
X025038Y033253D02*
X025085Y033253D01*
X025581Y033393D02*
X025581Y033113D01*
X025768Y033113D02*
X025768Y033393D01*
X025674Y033300D01*
X025581Y033393D01*
X030992Y033347D02*
X030992Y033300D01*
X031038Y033253D01*
X030992Y033207D01*
X030992Y033160D01*
X031038Y033113D01*
X031132Y033113D01*
X031178Y033160D01*
X031286Y033160D02*
X031333Y033113D01*
X031426Y033113D01*
X031473Y033160D01*
X031426Y033253D02*
X031333Y033253D01*
X031286Y033207D01*
X031286Y033160D01*
X031426Y033253D02*
X031473Y033300D01*
X031473Y033347D01*
X031426Y033393D01*
X031333Y033393D01*
X031286Y033347D01*
X031178Y033347D02*
X031132Y033393D01*
X031038Y033393D01*
X030992Y033347D01*
X031038Y033253D02*
X031085Y033253D01*
X031581Y033393D02*
X031581Y033113D01*
X031768Y033113D02*
X031768Y033393D01*
X031674Y033300D01*
X031581Y033393D01*
X031581Y032393D02*
X031581Y032113D01*
X031473Y032160D02*
X031426Y032113D01*
X031333Y032113D01*
X031286Y032160D01*
X031286Y032207D01*
X031333Y032253D01*
X031426Y032253D01*
X031473Y032300D01*
X031473Y032347D01*
X031426Y032393D01*
X031333Y032393D01*
X031286Y032347D01*
X031178Y032347D02*
X031132Y032393D01*
X031038Y032393D01*
X030992Y032347D01*
X030992Y032300D01*
X031178Y032113D01*
X030992Y032113D01*
X031085Y031643D02*
X031085Y031363D01*
X031178Y031363D02*
X030992Y031363D01*
X031178Y031550D02*
X031085Y031643D01*
X031286Y031597D02*
X031333Y031643D01*
X031426Y031643D01*
X031473Y031597D01*
X031473Y031550D01*
X031426Y031503D01*
X031333Y031503D01*
X031286Y031457D01*
X031286Y031410D01*
X031333Y031363D01*
X031426Y031363D01*
X031473Y031410D01*
X031581Y031363D02*
X031581Y031643D01*
X031674Y031550D01*
X031768Y031643D01*
X031768Y031363D01*
X031768Y032113D02*
X031768Y032393D01*
X031674Y032300D01*
X031581Y032393D01*
X036992Y032347D02*
X037038Y032393D01*
X037132Y032393D01*
X037178Y032347D01*
X037286Y032347D02*
X037333Y032393D01*
X037426Y032393D01*
X037473Y032347D01*
X037473Y032300D01*
X037426Y032253D01*
X037333Y032253D01*
X037286Y032207D01*
X037286Y032160D01*
X037333Y032113D01*
X037426Y032113D01*
X037473Y032160D01*
X037581Y032113D02*
X037581Y032393D01*
X037674Y032300D01*
X037768Y032393D01*
X037768Y032113D01*
X037768Y031643D02*
X037674Y031550D01*
X037581Y031643D01*
X037581Y031363D01*
X037473Y031410D02*
X037426Y031363D01*
X037333Y031363D01*
X037286Y031410D01*
X037286Y031457D01*
X037333Y031503D01*
X037426Y031503D01*
X037473Y031550D01*
X037473Y031597D01*
X037426Y031643D01*
X037333Y031643D01*
X037286Y031597D01*
X037178Y031550D02*
X037085Y031643D01*
X037085Y031363D01*
X037178Y031363D02*
X036992Y031363D01*
X036992Y032113D02*
X037178Y032113D01*
X036992Y032300D01*
X036992Y032347D01*
X037038Y033113D02*
X037132Y033113D01*
X037178Y033160D01*
X037286Y033160D02*
X037333Y033113D01*
X037426Y033113D01*
X037473Y033160D01*
X037426Y033253D02*
X037333Y033253D01*
X037286Y033207D01*
X037286Y033160D01*
X037426Y033253D02*
X037473Y033300D01*
X037473Y033347D01*
X037426Y033393D01*
X037333Y033393D01*
X037286Y033347D01*
X037178Y033347D02*
X037132Y033393D01*
X037038Y033393D01*
X036992Y033347D01*
X036992Y033300D01*
X037038Y033253D01*
X036992Y033207D01*
X036992Y033160D01*
X037038Y033113D01*
X037038Y033253D02*
X037085Y033253D01*
X037581Y033393D02*
X037581Y033113D01*
X037768Y033113D02*
X037768Y033393D01*
X037674Y033300D01*
X037581Y033393D01*
X037768Y031643D02*
X037768Y031363D01*
D19*
X005309Y016806D02*
X004902Y016806D01*
X005105Y016603D02*
X005105Y017010D01*
X003730Y018572D02*
X003730Y018979D01*
X004105Y022353D02*
X004105Y022760D01*
X003902Y022556D02*
X004309Y022556D01*
X003980Y024822D02*
X003980Y025229D01*
X004105Y028603D02*
X004105Y029010D01*
X003902Y028806D02*
X004309Y028806D01*
X003824Y013354D02*
X003824Y012947D01*
D20*
X037684Y011046D02*
X037686Y011081D01*
X037692Y011116D01*
X037702Y011150D01*
X037715Y011183D01*
X037732Y011214D01*
X037753Y011242D01*
X037776Y011269D01*
X037803Y011292D01*
X037831Y011313D01*
X037862Y011330D01*
X037895Y011343D01*
X037929Y011353D01*
X037964Y011359D01*
X037999Y011361D01*
X038034Y011359D01*
X038069Y011353D01*
X038103Y011343D01*
X038136Y011330D01*
X038167Y011313D01*
X038195Y011292D01*
X038222Y011269D01*
X038245Y011242D01*
X038266Y011214D01*
X038283Y011183D01*
X038296Y011150D01*
X038306Y011116D01*
X038312Y011081D01*
X038314Y011046D01*
X038312Y011011D01*
X038306Y010976D01*
X038296Y010942D01*
X038283Y010909D01*
X038266Y010878D01*
X038245Y010850D01*
X038222Y010823D01*
X038195Y010800D01*
X038167Y010779D01*
X038136Y010762D01*
X038103Y010749D01*
X038069Y010739D01*
X038034Y010733D01*
X037999Y010731D01*
X037964Y010733D01*
X037929Y010739D01*
X037895Y010749D01*
X037862Y010762D01*
X037831Y010779D01*
X037803Y010800D01*
X037776Y010823D01*
X037753Y010850D01*
X037732Y010878D01*
X037715Y010909D01*
X037702Y010942D01*
X037692Y010976D01*
X037686Y011011D01*
X037684Y011046D01*
X037684Y007109D02*
X037686Y007144D01*
X037692Y007179D01*
X037702Y007213D01*
X037715Y007246D01*
X037732Y007277D01*
X037753Y007305D01*
X037776Y007332D01*
X037803Y007355D01*
X037831Y007376D01*
X037862Y007393D01*
X037895Y007406D01*
X037929Y007416D01*
X037964Y007422D01*
X037999Y007424D01*
X038034Y007422D01*
X038069Y007416D01*
X038103Y007406D01*
X038136Y007393D01*
X038167Y007376D01*
X038195Y007355D01*
X038222Y007332D01*
X038245Y007305D01*
X038266Y007277D01*
X038283Y007246D01*
X038296Y007213D01*
X038306Y007179D01*
X038312Y007144D01*
X038314Y007109D01*
X038312Y007074D01*
X038306Y007039D01*
X038296Y007005D01*
X038283Y006972D01*
X038266Y006941D01*
X038245Y006913D01*
X038222Y006886D01*
X038195Y006863D01*
X038167Y006842D01*
X038136Y006825D01*
X038103Y006812D01*
X038069Y006802D01*
X038034Y006796D01*
X037999Y006794D01*
X037964Y006796D01*
X037929Y006802D01*
X037895Y006812D01*
X037862Y006825D01*
X037831Y006842D01*
X037803Y006863D01*
X037776Y006886D01*
X037753Y006913D01*
X037732Y006941D01*
X037715Y006972D01*
X037702Y007005D01*
X037692Y007039D01*
X037686Y007074D01*
X037684Y007109D01*
M02*
